<svg xmlns="http://www.w3.org/2000/svg" width="360" height="82" viewBox="0 0 360 82" fill="none">
  <path d="M244.637 212.955L341.808 258.943L245.742 210.676L344.466 253.246L246.777 208.363L346.917 247.446L247.744 206.015L349.196 241.611L248.607 203.667L351.232 235.673L249.401 201.251L353.062 229.665L250.091 198.799L354.684 223.589L250.678 196.348L356.065 217.478L251.196 193.897L357.273 211.332L251.644 191.411L358.274 205.118L251.99 188.89L359.033 198.868L252.266 186.37L359.586 192.619L252.438 183.85L359.896 186.335L252.507 181.329L360 180.052L252.507 178.774L359.896 173.768L252.438 176.254L359.586 167.484L252.266 173.734L359.033 161.235L251.99 171.213L358.274 154.986L251.644 168.693L357.273 148.771L251.196 166.207L356.065 142.626L250.678 163.756L354.684 136.515L250.091 161.304L353.062 130.438L249.401 158.853L351.232 124.431L248.607 156.436L349.196 118.492L247.744 154.088L346.917 112.658L246.777 151.741L344.466 106.857L245.742 149.427L341.808 101.16L244.637 147.149L338.943 95.5673L243.429 144.939L335.871 90.0777L242.152 142.729L332.626 84.6917L240.805 140.589L329.209 79.4092L239.39 138.483L325.619 74.2649L237.906 136.446L321.822 69.2587L236.352 134.443L317.887 64.356L234.73 132.475L313.779 59.5915L233.039 130.576L309.464 54.9996L231.278 128.781L305.046 50.5803L229.483 127.02L300.454 46.2645L227.585 125.328L295.691 42.156L225.617 123.706L290.789 38.22L223.615 122.152L285.784 34.4222L221.578 120.668L280.641 30.8315L219.473 119.252L275.359 27.4135L217.332 117.905L269.974 24.168L215.123 116.628L264.486 21.0952L212.914 115.42L258.893 18.2296L210.636 114.315L253.198 15.5711L208.323 113.279L247.433 13.1198L206.01 112.312L241.599 10.8411L203.663 111.449L235.662 8.80408L201.247 110.655L229.656 6.97422L198.796 109.965L223.58 5.3515L196.345 109.378L217.471 3.97049L193.894 108.86L211.326 2.76207L191.409 108.411L205.113 1.76085L188.889 108.031L198.865 0.966717L186.369 107.755L192.617 0.414292L183.849 107.582L186.334 0.103573L181.329 107.513L180.052 0L178.775 107.513L173.769 0.103573L176.255 107.582L167.487 0.414292L173.735 107.755L161.239 0.966717L171.215 108.031L154.991 1.72629L168.695 108.376L148.777 2.72756L166.21 108.825L142.633 3.93593L163.759 109.343L136.523 5.317L161.308 109.93L130.448 6.93971L158.857 110.621L124.441 8.76957L156.441 111.415L118.504 10.8066L154.093 112.278L112.67 13.0853L151.746 113.244L106.871 15.5366L149.433 114.28L101.176 18.1951L147.155 115.385L95.5835 21.0607L144.946 116.593L90.0949 24.1335L142.737 117.871L84.7099 27.379L140.596 119.217L79.4285 30.797L138.491 120.633L74.2852 34.3877L136.454 122.118L69.2799 38.1855L134.452 123.671L64.3782 42.1214L132.484 125.294L59.6145 46.23L130.586 126.986L55.0235 50.5112L128.791 128.712L50.605 54.9305L127.03 130.507L46.2902 59.5224L125.339 132.406L42.1824 64.2524L123.717 134.34L38.2472 69.1551L122.163 136.342L34.4501 74.1613L120.679 138.379L30.8601 79.3057L119.264 140.485L27.4427 84.5881L117.917 142.626L24.1979 89.9741L116.64 144.836L21.1257 95.4637L115.432 147.045L18.2606 101.057L114.327 149.324L15.6026 106.754L113.292 151.637L13.1518 112.554L112.325 153.985L10.8735 118.389L111.462 156.333L8.8369 124.327L110.668 158.749L7.00738 130.335L109.978 161.201L5.38499 136.411L109.391 163.652L3.9697 142.522L108.839 166.103L2.76153 148.668L108.39 168.589L1.76048 154.883L108.01 171.11L0.966535 161.132L107.734 173.63L0.414229 167.381L107.562 176.15L0.103556 173.665L107.493 178.671L0 179.948L107.493 181.226L0.103556 186.232L107.562 183.746L0.414229 192.516L107.734 186.266L0.966535 198.765L108.01 188.787L1.76048 205.014L108.39 191.307L2.76153 211.229L108.839 193.793L3.9697 217.374L109.357 196.244L5.35047 223.485L109.943 198.696L6.97286 229.562L110.634 201.147L8.80238 235.569L111.428 203.564L10.839 241.508L112.291 205.912L13.1173 247.343L113.257 208.259L15.5681 253.143L114.293 210.573L18.2261 258.84L115.397 212.851L21.0912 264.433L116.606 215.061L24.1634 269.922L117.883 217.271L27.4082 275.308L119.229 219.411L30.8256 280.591L120.644 221.517L34.4156 285.735L122.129 223.554L38.2127 290.741L123.682 225.557L42.1479 295.644L125.304 227.525L46.2556 300.409L126.996 229.424L50.536 305L128.722 231.219L54.9544 309.42L130.517 232.98L59.5455 313.736L132.415 234.672L64.3091 317.844L134.383 236.294L69.2109 321.78L136.385 237.848L74.2161 325.578L138.422 239.333L79.3595 329.169L140.527 240.748L84.6409 332.587L142.668 242.095L90.0259 335.832L144.877 243.372L95.5144 338.905L147.086 244.58L101.107 341.77L149.364 245.685L106.802 344.429L151.677 246.721L112.601 346.88L154.024 247.688L118.435 349.159L156.372 248.551L124.372 351.196L158.788 249.345L130.379 353.026L161.239 250.036L136.454 354.649L163.69 250.622L142.564 356.03L166.141 251.14L148.708 357.238L168.626 251.589L154.922 358.239L171.146 251.969L161.17 359.033L173.666 252.245L167.418 359.586L176.186 252.418L173.7 359.896L178.706 252.487L179.983 360L181.26 252.487L186.265 359.896L183.78 252.418L192.548 359.586L186.3 252.245L198.796 359.033L188.82 251.969L205.044 358.274L191.34 251.624L211.257 357.273L193.825 251.175L217.401 356.064L196.276 250.657L223.511 354.683L198.727 250.07L229.587 353.06L201.177 249.38L235.593 351.231L203.594 248.585L241.53 349.194L205.941 247.722L247.364 346.915L208.288 246.756L253.163 344.463L210.601 245.72L258.859 341.805L212.879 244.615L264.451 338.939L215.089 243.407L269.94 335.867L217.298 242.129L275.325 332.621L219.438 240.783L280.606 329.203L221.544 239.367L285.749 325.612L223.58 237.882L290.755 321.815L225.583 236.329L295.656 317.879L227.55 234.706L300.42 313.77L229.449 233.014L305.011 309.454L231.244 231.253L309.429 305.035L233.004 229.458L313.744 300.443L234.696 227.559L317.852 295.713L236.318 225.626L321.787 290.81L237.871 223.623L325.584 285.804L239.356 221.586L329.174 280.66L240.771 219.48L332.592 275.377L242.117 217.34L335.837 269.991L243.394 215.13L338.909 264.502L244.603 212.92L244.637 212.955ZM237.975 181.053L237.906 183.09L237.768 185.093L237.561 187.095L237.284 189.098L236.939 191.1L236.525 193.068L236.042 195.036L235.49 196.969L234.868 198.903L234.178 200.802L233.418 202.666L232.59 204.531L231.692 206.36L230.76 208.156L229.759 209.917L228.689 211.643L227.55 213.335L226.342 214.957L225.099 216.546L223.788 218.099L222.441 219.618L221.026 221.068L219.576 222.484L218.092 223.83L216.539 225.142L214.951 226.385L213.328 227.559L211.637 228.699L209.911 229.769L208.15 230.77L206.355 231.702L204.526 232.6L202.662 233.429L200.798 234.188L198.899 234.879L196.966 235.5L195.033 236.053L193.065 236.536L191.098 236.95L189.096 237.296L187.094 237.572L185.092 237.779L183.055 237.917L181.018 237.986H178.982L176.945 237.917L174.908 237.779L172.906 237.572L170.904 237.296L168.902 236.95L166.935 236.536L164.967 236.053L163.034 235.5L161.101 234.879L159.202 234.188L157.338 233.429L155.474 232.6L153.645 231.702L151.85 230.736L150.089 229.734L148.363 228.664L146.672 227.525L145.049 226.351L143.462 225.108L141.908 223.796L140.389 222.449L138.939 221.034L137.524 219.584L136.178 218.065L134.866 216.511L133.624 214.923L132.45 213.3L131.311 211.608L130.241 209.882L129.24 208.121L128.308 206.326L127.41 204.496L126.582 202.632L125.822 200.767L125.132 198.868L124.51 196.935L123.958 195.001L123.475 193.034L123.061 191.066L122.715 189.063L122.439 187.061L122.232 185.058L122.094 183.056L122.025 181.019V178.981L122.094 176.944L122.232 174.942L122.439 172.939L122.715 170.937L123.061 168.935L123.475 166.967L123.958 164.999L124.51 163.065L125.132 161.132L125.822 159.233L126.582 157.368L127.41 155.504L128.308 153.674L129.274 151.879L130.275 150.118L131.345 148.392L132.484 146.7L133.693 145.043L134.935 143.455L136.247 141.901L137.593 140.382L139.009 138.932L140.458 137.516L141.977 136.17L143.531 134.858L145.118 133.615L146.741 132.441L148.432 131.301L150.158 130.231L151.919 129.23L153.714 128.298L155.543 127.4L157.373 126.571L159.237 125.812L161.135 125.121L163.068 124.5L165.001 123.947L166.969 123.464L168.937 123.05L170.939 122.705L172.941 122.428L174.943 122.221L176.945 122.083L178.982 122.014H181.018L183.055 122.083L185.057 122.221L187.059 122.428L189.061 122.705L191.063 123.05L193.031 123.464L194.999 123.947L196.932 124.5L198.865 125.121L200.763 125.812L202.627 126.571L204.491 127.4L206.321 128.298L208.116 129.23L209.876 130.231L211.602 131.301L213.294 132.441L214.916 133.615L216.504 134.858L218.057 136.17L219.542 137.516L220.991 138.932L222.407 140.382L223.753 141.901L225.065 143.455L226.307 145.043L227.481 146.665L228.62 148.357L229.69 150.083L230.691 151.844L231.658 153.64L232.555 155.469L233.384 157.334L234.143 159.198L234.834 161.097L235.455 163.031L236.007 164.964L236.491 166.932L236.905 168.9L237.25 170.902L237.526 172.905L237.733 174.907L237.871 176.91L237.94 178.947V180.984L237.975 181.053Z" fill="#05227A"/>
</svg>