<svg width="224" height="99" viewBox="0 0 224 99" fill="none" xmlns="http://www.w3.org/2000/svg">
<g clip-path="url(#clip0_16484_91815)">
<path d="M24.3399 38.7455C24.103 40.3853 23.6751 41.988 23.066 43.5169C22.5228 44.7706 21.7688 45.9098 20.8406 46.8791C19.7819 47.9409 18.5519 48.7941 17.2088 49.3984C15.953 49.9583 13.2427 50.2796 11.6165 50.2796C9.96854 50.2999 8.3324 49.9835 6.79821 49.3476C5.34067 48.7273 4.28968 47.3722 3.25676 46.1316C2.16559 44.7913 1.34571 43.2292 0.847604 41.5416C0.245952 39.4821 -0.0417217 37.3346 -0.00463391 35.1797C-0.0327861 33.0094 0.246347 30.8469 0.823512 28.7638C1.30502 27.0084 2.10821 25.3699 3.18749 23.9415C4.19343 22.6424 5.47052 21.607 6.91867 20.9164C8.48318 20.1887 10.1783 19.8274 11.8875 19.8572C13.5709 19.8572 16.3083 20.0576 17.6093 20.5506C18.8351 20.9976 19.9622 21.7033 20.9219 22.6246C21.8378 23.5213 22.574 24.6029 23.0871 25.8055C23.6201 27.0461 24.0929 29.3045 24.2284 30.8282L20.3407 30.7614C20.0395 28.6747 19.0548 26.5467 17.9074 25.3538C16.7601 24.161 14.113 22.8568 11.8845 23.2926C9.23447 23.6393 7.69261 24.6063 6.27723 26.6516C4.86185 28.697 4.16922 31.5662 4.16922 35.2624C4.16922 38.9586 4.88293 41.8469 6.31337 43.8509C7.7438 45.8549 9.18929 46.5611 11.7008 46.5611C13.7546 46.5611 16.5191 45.7436 17.8351 44.4585C19.1511 43.1734 20.0606 40.9435 20.3527 38.631L24.3399 38.7455Z" fill="white"/>
<path d="M36.3214 50.2391C34.7976 50.2391 33.4425 50.2964 32.2289 49.762C31.0596 49.2587 30.0075 48.4936 29.1451 47.5194C28.305 46.5651 27.6394 45.0796 27.2088 43.7246C26.7782 42.3695 26.5674 41.9432 26.5674 40.3337C26.5496 38.8096 26.7798 37.2936 27.2479 35.8518C27.6674 34.5657 28.3326 33.3845 29.2024 32.3814C30.0623 31.4081 31.1154 30.6478 32.2861 30.1547C33.5803 29.6178 34.9612 29.352 36.3515 29.3722C37.7165 29.3514 39.0718 29.6174 40.3387 30.1547C41.4901 30.6501 42.5281 31.3995 43.3832 32.3528C44.2489 33.3445 44.9039 34.5201 45.3045 35.8009C45.761 37.2606 45.9849 38.7902 45.9671 40.3273C45.963 41.7852 45.7057 43.2299 45.2082 44.5898C44.7534 45.9289 43.9012 46.88 43.0731 47.8375C42.3719 48.7009 41.4715 49.3583 40.4591 49.7461C39.2576 50.2614 37.788 50.2391 36.3214 50.2391ZM36.2612 46.9914C38.2638 46.9914 39.3389 46.3711 40.4079 45.0001C41.477 43.6291 42.0221 42.8307 42.0221 40.2923C42.0221 37.754 41.489 35.8072 40.42 34.4522C39.3509 33.0971 38.3692 32.7376 36.3666 32.7376C34.364 32.7376 33.2257 33.4565 32.1506 34.8084C31.0755 36.1603 30.4792 37.8876 30.7081 40.4005C30.9249 42.678 31.1026 43.4446 32.1686 44.8252C33.2347 46.2057 34.2315 46.9914 36.2612 46.9914Z" fill="white"/>
<path d="M63.2044 49.8355V37.4298C63.2296 36.5902 63.1144 35.7524 62.8641 34.9551C62.6732 34.3748 62.342 33.8572 61.9035 33.4537C61.4669 33.0752 60.9504 32.8133 60.3978 32.6903C59.7526 32.5439 59.0941 32.4735 58.4343 32.4803C57.5756 32.4592 56.7225 32.6316 55.9318 32.9861C55.2517 33.304 54.6492 33.7816 54.1701 34.3825C53.6937 34.9923 53.3392 35.6979 53.1281 36.4565C52.899 37.2666 52.7843 38.108 52.7879 38.9535V49.9277H49.3789V29.9292H52.6313V34.7006C52.8622 33.8177 53.2417 32.9859 53.7515 32.2449C54.2043 31.598 54.7632 31.0421 55.4018 30.6036C56.0259 30.1834 56.7089 29.87 57.4255 29.6747C58.1314 29.4795 58.858 29.3801 59.5877 29.3789C61.6716 29.3789 63.361 29.943 64.6559 31.0712C65.9509 32.1993 66.5983 34.0019 66.5983 36.4787V49.9086L63.2044 49.8355Z" fill="white"/>
<path d="M99.9731 40.7471L85.47 40.8171C85.6025 43.0851 86.3042 44.0457 87.3913 45.1495C88.4784 46.2533 90.0835 46.6095 91.7519 46.6095C93.0769 46.6095 94.15 46.301 94.9711 45.6839C95.8131 45.0359 96.3945 44.0779 96.6003 42.9992H100.1C99.916 43.9449 99.5579 44.8431 99.0456 45.6425C98.5276 46.4568 97.8892 47.5193 97.1604 48.1046C96.4146 48.7027 95.5829 49.1709 94.697 49.4914C93.5169 49.8745 92.2933 50.0885 91.0592 50.1276C88.0116 50.1276 85.9578 49.2847 84.3407 47.3252C82.7236 45.3658 82.052 43.6322 82.052 40.0473C82.0328 38.5804 82.2413 37.12 82.6694 35.7244C83.0424 34.5047 83.6435 33.3764 84.4371 32.4067C85.2286 31.472 86.2182 30.7482 87.325 30.2945C88.5529 29.7889 89.8619 29.5393 91.1797 29.5598C94.0405 29.5598 96.2269 30.514 97.7386 32.4226C99.2443 34.3311 99.9912 36.316 99.9912 39.7864L99.9731 40.7471ZM91.1556 32.6262C89.4049 32.6262 88.0468 33.1563 87.0811 34.2166C86.1154 35.2769 85.5784 36.8154 85.47 38.8322H96.6123C96.5079 36.8176 96.006 35.2791 95.1066 34.2166C94.2072 33.1542 92.8942 32.624 91.1676 32.6262H91.1556Z" fill="white"/>
<path d="M134.524 40.7205L119.918 40.7936C120.051 43.1412 120.728 44.1463 121.821 45.2915C122.915 46.4366 124.562 46.7865 126.242 46.7865C127.575 46.7865 128.656 46.4684 129.486 45.8322C130.34 45.1522 130.925 44.1615 131.127 43.0521H134.65C134.466 44.0284 134.106 44.9582 133.59 45.7909C133.069 46.6306 132.425 47.7312 131.69 48.3356C130.942 48.9531 130.104 49.4376 129.209 49.7702C128.023 50.1685 126.79 50.3932 125.547 50.4382C122.478 50.4382 120.406 49.5666 118.78 47.5372C117.154 45.5078 116.142 44.0159 116.142 40.307C116.122 38.7897 116.331 37.2789 116.762 35.8314C117.248 34.4635 117.962 33.1987 118.87 32.097C119.654 31.1355 120.641 30.3834 121.752 29.9021C122.986 29.3785 124.307 29.12 125.637 29.1419C128.52 29.1419 130.721 30.1269 132.241 32.097C133.762 34.0692 134.512 36.1272 134.512 39.7312L134.524 40.7205ZM125.643 32.3133C123.88 32.3133 122.512 32.8647 121.538 33.9674C120.565 35.0701 120.025 36.6606 119.918 38.7388H131.127C131.018 36.6563 130.512 35.0659 129.606 33.9674C128.701 32.8689 127.38 32.3197 125.643 32.3197V32.3133Z" fill="white"/>
<path d="M197.212 40.7206L182.793 40.797C182.923 43.17 183.489 44.2515 184.57 45.4093C185.651 46.5672 187.377 46.8598 189.036 46.8598C190.355 46.8598 191.422 46.5417 192.237 45.9056C193.085 45.2098 193.662 44.2091 193.857 43.0936H197.335C197.156 44.0781 196.8 45.0174 196.287 45.861C195.775 46.7135 195.14 47.8268 194.414 48.4408C193.679 49.0632 192.852 49.5542 191.966 49.8944C190.797 50.2957 189.581 50.5226 188.352 50.5688C185.323 50.5688 183.278 49.6877 181.673 47.636C180.068 45.5843 179.396 43.7648 179.396 40.0017C179.373 38.4691 179.577 36.942 179.999 35.4753C180.364 34.2073 180.962 33.0272 181.757 32.0017C182.522 31.0295 183.497 30.2658 184.6 29.7751C185.815 29.2444 187.119 28.9824 188.434 29.0053C191.28 29.0053 193.454 30.002 194.953 31.9954C196.459 33.9866 197.197 36.0733 197.197 39.7059L197.212 40.7206ZM188.443 32.218C186.706 32.218 185.356 32.7747 184.392 33.888C183.429 35.0013 182.893 36.613 182.784 38.723H193.848C193.742 36.6024 193.24 34.9897 192.342 33.8848C191.445 32.78 190.145 32.2233 188.443 32.2148V32.218Z" fill="white"/>
<path d="M223.867 80.3932L209.029 80.4663C209.165 82.7661 209.776 83.7236 210.887 84.8464C211.999 85.9693 213.748 86.3415 215.456 86.3415C216.811 86.3415 217.908 86.0298 218.747 85.4063C219.613 84.752 220.214 83.7777 220.431 82.6771H224.008C223.821 83.6386 223.454 84.5512 222.93 85.3618C222.403 86.1856 221.75 87.2703 221.003 87.862C220.239 88.4704 219.388 88.9451 218.482 89.2679C217.275 89.6593 216.025 89.8796 214.763 89.9232C211.646 89.9232 209.541 89.0675 207.891 87.0795C206.241 85.0914 205.548 83.3291 205.548 79.6933C205.529 78.2034 205.743 76.7203 206.18 75.3037C206.562 74.0647 207.176 72.92 207.987 71.9382C208.789 70.9875 209.792 70.2497 210.914 69.7848C212.172 69.2708 213.511 69.0181 214.859 69.0404C217.787 69.0404 220.023 70.0064 221.569 71.9382C223.114 73.8691 223.876 75.889 223.876 79.4134L223.867 80.3932ZM214.832 72.1514C213.043 72.1514 211.654 72.6911 210.664 73.7705C209.675 74.8499 209.126 76.4117 209.017 78.456H220.431C220.322 76.4096 219.807 74.8477 218.886 73.7705C217.964 72.6932 216.617 72.1535 214.844 72.1514H214.832Z" fill="white"/>
<path d="M103.887 49.9449V29.4789H107.386V33.8972C107.765 32.9143 107.907 32.399 108.473 31.75C109.496 30.5483 110.864 29.7337 112.367 29.4311C113.067 29.2891 113.777 29.2166 114.49 29.2148H115.583V32.9842C115.348 32.9556 115.101 32.9333 114.839 32.9174C114.577 32.9015 114.285 32.8952 113.966 32.8952C112.949 32.8733 111.937 33.0647 110.991 33.4582C110.196 33.7977 109.486 34.3242 108.913 34.9978C108.362 35.6668 107.945 36.447 107.687 37.2912C107.403 38.2221 107.263 39.1952 107.272 40.1731L107.476 49.8972L103.887 49.9449Z" fill="white"/>
<path d="M151.767 49.9184V37.1947C151.792 36.3923 151.68 35.5918 151.436 34.8312C151.247 34.2738 150.922 33.779 150.494 33.3966C150.065 33.0349 149.561 32.7853 149.024 32.6682C148.393 32.5286 147.75 32.4614 147.106 32.4678C146.266 32.4476 145.431 32.6123 144.654 32.9513C143.991 33.2531 143.401 33.7099 142.929 34.2873C142.463 34.8652 142.117 35.5389 141.911 36.2658C141.686 37.0375 141.573 37.8409 141.577 38.6483V49.9215H138.246V30.0408H141.42V34.6054C141.648 33.7598 142.021 32.9653 142.519 32.261C142.966 31.631 143.517 31.0921 144.146 30.6706C144.757 30.2678 145.425 29.9684 146.124 29.7831C146.813 29.5975 147.521 29.5024 148.232 29.5C150.27 29.5 151.923 30.0386 153.192 31.1159C154.461 32.1932 155.094 33.9172 155.092 36.2881V49.9025L151.767 49.9184Z" fill="white"/>
<path d="M176.482 42.43C176.358 43.5383 176.023 44.6085 175.497 45.576C174.987 46.5068 174.317 47.3288 173.521 47.9998C172.69 48.6902 171.752 49.222 170.748 49.5712C169.658 49.9559 168.515 50.1473 167.366 50.1374C166.099 50.151 164.839 49.9259 163.647 49.4726C162.54 49.0481 161.543 48.3564 160.735 47.4527C159.891 46.4871 159.247 45.3464 158.844 44.1032C158.365 42.6036 158.135 41.0284 158.163 39.4463C158.132 37.8817 158.362 36.3235 158.844 34.8435C159.223 33.6665 159.859 32.6004 160.701 31.7312C161.543 30.862 162.566 30.2141 163.689 29.8399C164.917 29.4211 166.202 29.2169 167.492 29.2355C168.693 29.2222 169.889 29.398 171.04 29.7572C172.055 30.0737 173.003 30.5943 173.832 31.2904C174.608 31.9503 175.245 32.7749 175.702 33.7111C176.174 34.6911 176.453 35.7626 176.521 36.8602H172.907C172.74 35.327 172.166 34.1607 171.184 33.3612C170.114 32.5379 168.813 32.1188 167.489 32.1715C166.704 32.1624 165.922 32.2914 165.177 32.5532C164.489 32.804 163.869 33.2263 163.37 33.7843C162.821 34.4263 162.41 35.1858 162.165 36.0109C161.847 37.0947 161.697 38.226 161.722 39.3604C161.703 40.5264 161.845 41.6891 162.144 42.8117C162.381 43.705 162.78 44.5412 163.319 45.2738C163.793 45.9096 164.405 46.4149 165.104 46.7465C165.799 47.0729 166.552 47.2388 167.312 47.2332C168.656 47.2709 169.974 46.8294 171.052 45.9799C171.572 45.5524 172.005 45.017 172.322 44.4065C172.64 43.796 172.836 43.1234 172.898 42.43H176.482Z" fill="white"/>
<path d="M61.1641 89.4803V60.0312H79.6242V63.3999H64.6182V72.3605H78.5612V75.7323H64.6182V86.1117H80.2114V89.4803H61.1641Z" fill="white"/>
<path d="M119.896 82.3634C119.769 83.4843 119.428 84.5664 118.894 85.5443C118.377 86.4843 117.699 87.3139 116.894 87.9905C116.052 88.6886 115.101 89.2267 114.084 89.5809C112.979 89.9695 111.82 90.163 110.654 90.1535C109.374 90.1635 108.103 89.933 106.899 89.4728C105.779 89.0452 104.769 88.3482 103.948 87.437C103.093 86.4635 102.44 85.3117 102.033 84.0557C101.546 82.5404 101.313 80.9475 101.343 79.3479C101.31 77.7688 101.543 76.1962 102.033 74.7037C102.434 73.4928 103.097 72.3973 103.969 71.5037C104.818 70.6724 105.828 70.0462 106.929 69.6683C108.173 69.237 109.475 69.0221 110.784 69.0321C112.007 69.017 113.225 69.195 114.398 69.5602C115.427 69.8788 116.388 70.4048 117.228 71.1093C118.014 71.7753 118.659 72.6074 119.122 73.5522C119.602 74.5414 119.885 75.624 119.954 76.7332H116.277C116.104 75.1872 115.522 74.0124 114.53 73.2087C113.443 72.3795 112.124 71.9575 110.784 72.0095C109.988 71.9996 109.196 72.1297 108.441 72.3944C107.74 72.6467 107.107 73.0758 106.598 73.6445C106.051 74.2876 105.64 75.0468 105.393 75.8711C105.072 76.9663 104.922 78.1094 104.948 79.2556C104.928 80.4323 105.071 81.6056 105.372 82.7388C105.616 83.6423 106.025 84.4864 106.577 85.2231C107.058 85.8647 107.677 86.3752 108.384 86.7117C109.088 87.0382 109.849 87.204 110.618 87.1984C111.981 87.2346 113.316 86.7866 114.41 85.926C114.937 85.4951 115.375 84.9548 115.697 84.3383C116.019 83.7217 116.219 83.0421 116.283 82.3411L119.896 82.3634Z" fill="white"/>
<path d="M136.267 89.5399V76.7494C136.291 75.9452 136.189 75.1425 135.966 74.3732C135.792 73.8162 135.48 73.3186 135.063 72.9322C134.649 72.5699 134.158 72.3189 133.632 72.2006C133.018 72.0599 132.391 71.9916 131.762 71.997C130.956 71.9785 130.155 72.1457 129.416 72.4869C128.77 72.7874 128.201 73.2465 127.757 73.8261C127.313 74.4152 126.982 75.0907 126.784 75.8142C126.565 76.5914 126.456 77.3985 126.459 78.2094V89.5399H123.219V58.8789H126.474V74.1474C126.693 73.3052 127.048 72.509 127.522 71.7935C127.932 71.1747 128.442 70.6365 129.028 70.203C129.586 69.7975 130.205 69.4952 130.859 69.3092C131.517 69.1198 132.197 69.0246 132.879 69.0261C134.863 69.0261 136.469 69.5668 137.698 70.6483C138.926 71.7299 139.537 73.4624 139.529 75.846V89.524L136.267 89.5399Z" fill="white"/>
<path d="M177.294 89.5435V77.1061C177.319 76.3211 177.206 75.538 176.96 74.7967C176.768 74.2498 176.443 73.766 176.017 73.394C175.587 73.0395 175.083 72.7966 174.548 72.6846C173.916 72.5477 173.272 72.4816 172.627 72.4874C171.786 72.4658 170.951 72.6272 170.172 72.9613C169.48 73.2794 169.172 73.8075 168.715 74.361C168.306 74.896 168.016 75.521 167.865 76.19C167.651 76.9819 167.55 77.8031 167.564 78.6266L167.591 89.5435H163.758V69.6055H167.51L167.525 75.1466C167.784 74.2528 168.058 73.0886 168.41 72.3729C168.639 71.6959 169.081 71.1229 169.663 70.7506C170.278 70.3558 170.946 70.063 171.645 69.8822C172.334 69.7002 173.042 69.6073 173.753 69.6055C175.795 69.6055 177.449 70.1356 178.716 71.1959C179.982 72.2562 180.617 73.9411 180.619 76.2504V89.5562L177.294 89.5435Z" fill="white"/>
<path d="M199.392 85.1597C199.203 85.9164 198.865 86.6222 198.399 87.2305C197.959 87.7967 197.424 88.2723 196.821 88.6333C196.213 89 195.559 89.2731 194.878 89.4444C194.196 89.6193 193.496 89.7079 192.794 89.7084C191.451 89.7405 190.117 89.4706 188.879 88.9164C187.824 88.4298 186.89 87.6929 186.148 86.7629C185.41 85.8076 184.866 84.7021 184.549 83.5152C184.19 82.1884 184.012 80.814 184.022 79.434C184.001 77.9546 184.204 76.4812 184.624 75.0698C184.984 73.8655 185.577 72.7531 186.365 71.803C187.118 70.911 188.051 70.2097 189.096 69.7513C190.248 69.2568 191.482 69.0123 192.725 69.0324C193.414 69.0333 194.101 69.1219 194.77 69.2964C195.456 69.4705 196.111 69.7583 196.712 70.1489C197.342 70.5619 197.897 71.0908 198.35 71.7107C198.877 72.4423 199.274 73.2675 199.525 74.1473V69.5668H202.838V89.7498C202.863 91.1176 202.63 92.4771 202.151 93.7482C201.721 94.8535 201.057 95.8396 200.209 96.6301C199.328 97.4284 198.304 98.03 197.197 98.3987C195.931 98.8187 194.609 99.0238 193.282 99.0063C191.979 99.0257 190.681 98.8271 189.437 98.4178C188.374 98.0653 187.385 97.5005 186.525 96.7542C185.72 96.0446 185.083 95.1473 184.663 94.1331C184.214 93.0286 183.993 91.8359 184.013 90.6341H187.211C187.239 92.3306 187.812 93.6496 188.931 94.5911C190.049 95.5327 191.513 95.9992 193.324 95.9908C195.185 95.9908 196.663 95.4701 197.757 94.4289C198.851 93.3877 199.397 91.9033 199.395 89.9756L199.392 85.1597ZM193.442 86.9887C194.356 87.0076 195.262 86.8064 196.092 86.4003C196.832 86.0289 197.483 85.4851 197.995 84.8098C198.515 84.1022 198.9 83.2954 199.13 82.4336C199.392 81.4699 199.52 80.4715 199.513 79.469C199.533 78.3415 199.377 77.2183 199.049 76.1449C198.782 75.2815 198.347 74.4863 197.772 73.8101C197.239 73.2076 196.582 72.7429 195.851 72.4519C195.081 72.1477 194.264 71.9957 193.442 72.0034C191.689 72.0034 190.273 72.6056 189.193 73.8101C188.113 75.0147 187.573 76.9031 187.573 79.4754C187.573 82.0731 188.113 83.9753 189.193 85.182C190.273 86.3886 191.689 86.9909 193.442 86.9887Z" fill="white"/>
<path d="M17.418 11.4258V1.4043H19.3867L23.4883 8.09668V1.4043H25.3682V11.4258H23.3379L19.2979 4.89062V11.4258H17.418ZM27.4873 11.4258V1.4043H30.5156L32.334 8.24023L34.1318 1.4043H37.167V11.4258H35.2871V3.53711L33.2979 11.4258H31.3496L29.3672 3.53711V11.4258H27.4873ZM38.6641 8.16504L40.6328 7.97363C40.7513 8.63444 40.9906 9.11979 41.3506 9.42969C41.7152 9.73958 42.2051 9.89453 42.8203 9.89453C43.472 9.89453 43.9619 9.75781 44.29 9.48438C44.6227 9.20638 44.7891 8.88281 44.7891 8.51367C44.7891 8.27669 44.7184 8.07617 44.5771 7.91211C44.4404 7.74349 44.1989 7.59766 43.8525 7.47461C43.6156 7.39258 43.0755 7.24674 42.2324 7.03711C41.1478 6.76823 40.3867 6.43783 39.9492 6.0459C39.334 5.49447 39.0264 4.82227 39.0264 4.0293C39.0264 3.51888 39.1699 3.04264 39.457 2.60059C39.7487 2.15397 40.1657 1.81445 40.708 1.58203C41.2549 1.34961 41.9134 1.2334 42.6836 1.2334C43.9414 1.2334 44.887 1.50911 45.5205 2.06055C46.1585 2.61198 46.4935 3.34798 46.5254 4.26855L44.502 4.35742C44.4154 3.84245 44.2285 3.47331 43.9414 3.25C43.6589 3.02214 43.2327 2.9082 42.6631 2.9082C42.0752 2.9082 41.6149 3.02897 41.2822 3.27051C41.068 3.42546 40.9609 3.63281 40.9609 3.89258C40.9609 4.12956 41.0612 4.33236 41.2617 4.50098C41.5169 4.71517 42.1367 4.93848 43.1211 5.1709C44.1055 5.40332 44.8324 5.64486 45.3018 5.89551C45.7757 6.1416 46.1449 6.48112 46.4092 6.91406C46.6781 7.34245 46.8125 7.87337 46.8125 8.50684C46.8125 9.08105 46.653 9.61882 46.334 10.1201C46.015 10.6214 45.5638 10.9951 44.9805 11.2412C44.3971 11.4827 43.6702 11.6035 42.7998 11.6035C41.5329 11.6035 40.5599 11.3118 39.8809 10.7285C39.2018 10.1406 38.7962 9.28613 38.6641 8.16504ZM48.5078 1.4043H52.2061C53.04 1.4043 53.6758 1.4681 54.1133 1.5957C54.7012 1.76888 55.2048 2.0765 55.624 2.51855C56.0433 2.96061 56.3623 3.50293 56.5811 4.14551C56.7998 4.78353 56.9092 5.57194 56.9092 6.51074C56.9092 7.33561 56.8066 8.04655 56.6016 8.64355C56.3509 9.37272 55.9932 9.96289 55.5283 10.4141C55.1774 10.7559 54.7035 11.0225 54.1064 11.2139C53.6598 11.3551 53.0628 11.4258 52.3154 11.4258H48.5078V1.4043ZM50.5312 3.09961V9.7373H52.042C52.6071 9.7373 53.015 9.7054 53.2656 9.6416C53.5938 9.55957 53.8649 9.42057 54.0791 9.22461C54.2979 9.02865 54.4756 8.70736 54.6123 8.26074C54.749 7.80957 54.8174 7.19661 54.8174 6.42188C54.8174 5.64714 54.749 5.05241 54.6123 4.6377C54.4756 4.22298 54.2842 3.89941 54.0381 3.66699C53.792 3.43457 53.4798 3.27734 53.1016 3.19531C52.819 3.13151 52.2653 3.09961 51.4404 3.09961H50.5312ZM65.0439 7.74121L67.0059 8.36328C66.7051 9.45703 66.2038 10.2705 65.502 10.8037C64.8047 11.3324 63.9183 11.5967 62.8428 11.5967C61.512 11.5967 60.4183 11.1432 59.5615 10.2363C58.7048 9.32487 58.2764 8.08073 58.2764 6.50391C58.2764 4.83594 58.707 3.54167 59.5684 2.62109C60.4297 1.69596 61.5622 1.2334 62.9658 1.2334C64.1917 1.2334 65.1875 1.5957 65.9531 2.32031C66.4089 2.7487 66.7507 3.36393 66.9785 4.16602L64.9756 4.64453C64.8571 4.125 64.6087 3.71484 64.2305 3.41406C63.8568 3.11328 63.401 2.96289 62.8633 2.96289C62.1204 2.96289 61.5166 3.22949 61.0518 3.7627C60.5915 4.2959 60.3613 5.15951 60.3613 6.35352C60.3613 7.62044 60.5892 8.52279 61.0449 9.06055C61.5007 9.59831 62.0931 9.86719 62.8223 9.86719C63.36 9.86719 63.8226 9.69629 64.21 9.35449C64.5973 9.0127 64.8753 8.47493 65.0439 7.74121ZM81.1631 11.4258H78.9619L78.0869 9.14941H74.0811L73.2539 11.4258H71.1074L75.0107 1.4043H77.1504L81.1631 11.4258ZM77.4375 7.46094L76.0566 3.74219L74.7031 7.46094H77.4375ZM82.2637 11.4258V1.4043H84.2324L88.334 8.09668V1.4043H90.2139V11.4258H88.1836L84.1436 4.89062V11.4258H82.2637ZM92.3809 11.4258V1.4043H94.3496L98.4512 8.09668V1.4043H100.331V11.4258H98.3008L94.2607 4.89062V11.4258H92.3809ZM102.464 1.4043H104.487V6.83203C104.487 7.69336 104.512 8.25163 104.562 8.50684C104.649 8.91699 104.854 9.2474 105.178 9.49805C105.506 9.74414 105.952 9.86719 106.518 9.86719C107.092 9.86719 107.525 9.75098 107.816 9.51855C108.108 9.28158 108.284 8.99219 108.343 8.65039C108.402 8.30859 108.432 7.74121 108.432 6.94824V1.4043H110.455V6.66797C110.455 7.87109 110.4 8.72103 110.291 9.21777C110.182 9.71452 109.979 10.1338 109.683 10.4756C109.391 10.8174 108.999 11.0908 108.507 11.2959C108.015 11.4964 107.372 11.5967 106.579 11.5967C105.622 11.5967 104.895 11.4873 104.398 11.2686C103.906 11.0452 103.517 10.7581 103.229 10.4072C102.942 10.0518 102.753 9.68034 102.662 9.29297C102.53 8.71875 102.464 7.87109 102.464 6.75V1.4043ZM121.632 11.4258H119.431L118.556 9.14941H114.55L113.723 11.4258H111.576L115.479 1.4043H117.619L121.632 11.4258ZM117.906 7.46094L116.525 3.74219L115.172 7.46094H117.906ZM122.767 11.4258V1.48633H124.79V9.7373H129.821V11.4258H122.767Z" fill="white"/>
<path d="M156.77 73.6228V69.6657H160.685V71.5202C160.685 76.8769 160.857 82.3544 160.944 87.7111C160.968 88.0126 160.977 88.3152 160.971 88.6177C160.971 88.8181 160.986 89.0185 160.971 89.2539C160.971 89.4352 161.007 89.572 160.914 89.6388C160.808 89.6783 160.694 89.6892 160.583 89.6706C160.215 89.6706 159.875 89.7406 159.038 89.7024C158.435 89.6738 157.532 89.6738 156.77 89.6738C156.77 88.0229 156.794 86.426 156.794 84.6161C155.21 88.7322 153.292 90.0237 149.362 89.9092C146.188 89.8074 143.743 87.8352 142.707 84.3934C141.617 80.7767 141.65 77.1441 143.074 73.626C145.248 68.2407 151.404 68.2184 154.265 70.4451C155.322 71.2753 156.005 72.6272 156.77 73.6228ZM146.194 81.3461C146.591 84.4093 148.422 86.3052 151.133 86.496C153.843 86.6869 156.135 85.0773 156.607 82.0904C156.891 80.1342 156.809 78.1383 156.367 76.2153C155.885 74.0872 154.259 73.0852 152.126 72.8594C151.121 72.7544 150.283 72.7576 149.455 73.1011C148.481 73.4966 147.684 74.2656 147.224 75.2546C146.795 76.0289 146.49 76.8725 146.32 77.7516C146.15 78.9409 146.108 80.1467 146.194 81.3461ZM160.589 89.6769C160.221 89.6769 159.908 89.7406 159.044 89.7088C158.441 89.6833 157.538 89.6801 156.776 89.6801" fill="white"/>
<path d="M39.009 60.948L39.3101 66.2443L38.8102 66.4256C38.5302 66.0184 38.232 65.624 37.9761 65.2041C36.6691 63.057 34.9857 61.5174 32.4109 61.5683C30.0229 61.616 28.6918 63.795 29.7006 66.0534C30.1599 67.1071 30.7794 68.0741 31.5346 68.9163C35.335 73.0101 39.2017 77.0404 43.0503 81.0865C43.3479 81.3512 43.6595 81.5976 43.9839 81.8245C45.0108 80.1354 45.0981 78.3986 44.8181 76.5473C44.4928 74.3875 42.7432 73.9485 41.0176 73.4395L41.2766 72.9783H48.9859C45.9745 75.5899 47.4802 79.6583 45.595 82.5211C45.4836 82.6865 45.7426 83.345 45.9925 83.5263C47.962 84.9481 49.9074 86.4686 52.0154 87.6201C53.0604 88.1927 54.4547 88.0495 55.6713 88.2277C54.9666 89.7259 52.2051 90.5657 49.4135 89.535C47.2423 88.7334 45.2848 87.2925 43.0473 86.036C40.9393 87.8841 38.3706 89.481 35.2899 89.7991C30.9654 90.2476 27.1319 89.1056 24.2499 85.5048C20.0971 80.3612 21.9733 73.3537 28.2973 70.459C27.954 69.7242 27.5655 69.0085 27.2794 68.2515C25.8219 64.3866 27.8125 60.6904 31.7364 60.2991C33.3264 60.1401 34.9737 60.5886 36.5938 60.7763C37.2443 60.8526 37.8887 60.9799 38.5362 61.0944L39.009 60.948ZM41.7735 84.6173C41.129 84.0384 40.5298 83.574 40.0118 83.0269C36.8016 79.6339 33.5994 76.2409 30.4053 72.8479C28.8996 71.2383 27.8396 71.1715 26.364 72.7906C24.3162 75.0396 24.2138 77.7084 25.2347 80.409C27.7643 87.0476 36.2806 89.2869 41.7735 84.6173Z" fill="white"/>
<path d="M71.7185 32.6276H68.707V29.4976H74.6787C72.1461 27.7195 70.9686 25.7091 71.5016 22.9067C72.0347 20.1043 73.8837 18.2562 76.853 17.919C78.3075 17.7536 79.8072 17.9986 81.2858 18.1067C82.7644 18.2149 83.2252 19.061 82.7012 20.5178C82.5864 20.9207 82.5008 21.3322 82.4452 21.7489C81.2226 21.6312 80.0632 21.3767 78.9188 21.4308C76.8951 21.5357 75.7177 22.7922 75.534 24.9298C75.415 26.0598 75.415 27.2002 75.534 28.3302C75.5882 28.7405 76.2085 29.3354 76.6181 29.3799C77.8958 29.5273 79.1845 29.5347 80.4637 29.4022C81.9694 29.2336 82.397 29.8889 82.1983 31.3107C82.1531 31.6288 82.1501 31.9469 82.114 32.4686H75.8441V50.0146H71.7185V32.6276Z" fill="white"/>
<path d="M81.9023 70.1559L87.3982 79.1452H95.7128L100.712 69.6406L96.4837 69.7233L91.7949 78.8367L86.4165 69.8474L81.9023 69.9174V70.1559Z" fill="white"/>
<path d="M81.3945 89.4825V88.8273L87.3993 79.1445H91.796H95.7139L101.592 89.6416H96.9185L91.7298 79.2559L85.8213 89.4825H81.3945Z" fill="white"/>
</g>
<defs>
<clipPath id="clip0_16484_91815">
<rect width="224" height="99" fill="white"/>
</clipPath>
</defs>
</svg>
