<svg width="26" height="26" viewBox="0 0 26 26" fill="none" xmlns="http://www.w3.org/2000/svg">
<path d="M25.524 2.78935L2.79132 25.5222C2.4728 25.8407 2.05473 26 1.63666 26C1.2186 26 0.800529 25.8407 0.482002 25.5222C-0.155052 24.8851 -0.155052 23.8499 0.482002 23.2129L23.2147 0.477795C23.8517 -0.159265 24.8869 -0.159265 25.524 0.477795C26.161 1.11485 26.161 2.15008 25.524 2.78714V2.78935Z" fill="#3CBDFF"/>
<path d="M17.3101 0.477795C16.673 -0.159265 15.6378 -0.159265 15.0008 0.477795L9.13235 6.34626V1.63246C9.13235 0.732176 8.40018 0 7.49769 0C6.59519 0 5.86523 0.732176 5.86523 1.63246V14.2321L17.3101 2.78935C17.9471 2.15229 17.9471 1.11707 17.3101 0.480007V0.477795Z" fill="#00FFA7"/>
<path d="M0.00442408 20.1182L3.28046 16.8423L3.27161 12.2324V1.63246C3.27161 0.732176 2.53942 0 1.63912 0C1.63912 0 1.63912 0 1.63691 0C1.63691 0 1.63691 0 1.6347 0C0.732186 0 0 0.732176 0 1.63246V15.024C0 15.0572 0.00221204 15.0903 0.00442408 15.1213V20.116V20.1182Z" fill="#FFD119"/>
<path d="M23.2123 8.5691L8.56892 23.2126C7.93186 23.8497 7.93186 24.8849 8.56892 25.522C8.88744 25.8405 9.30551 25.9998 9.72358 25.9998C10.1416 25.9998 10.5597 25.8405 10.8782 25.522L25.5216 10.8784C26.1587 10.2414 26.1587 9.20616 25.5216 8.5691C24.8846 7.93204 23.8494 7.93204 23.2123 8.5691Z" fill="#3A7CED"/>
<path d="M23.2136 16.5755L16.5797 23.2093C15.9426 23.8463 15.9426 24.8816 16.5797 25.5186C16.8982 25.8371 17.3163 25.9964 17.7344 25.9964C18.1524 25.9964 18.5705 25.8371 18.889 25.5186L25.5229 18.8848C26.16 18.2477 26.16 17.2125 25.5229 16.5755C24.8859 15.9384 23.8506 15.9384 23.2136 16.5755Z" fill="#861FAC"/>
</svg>
