<svg width="164" height="44" viewBox="0 0 164 44" fill="none" xmlns="http://www.w3.org/2000/svg">
<path d="M34.5237 10.7893L11.791 33.5222C11.4725 33.8407 11.0544 34 10.6364 34C10.2183 34 9.80022 33.8407 9.4817 33.5222C8.84464 32.8851 8.84464 31.8499 9.4817 31.2129L32.2144 8.47779C32.8514 7.84074 33.8866 7.84074 34.5237 8.47779C35.1607 9.11485 35.1607 10.1501 34.5237 10.7871V10.7893Z" fill="#3CBDFF"/>
<path d="M26.312 8.47779C25.675 7.84074 24.6398 7.84074 24.0027 8.47779L18.1343 14.3463V9.63247C18.1343 8.73218 17.4021 8 16.4996 8C15.5971 8 14.8672 8.73218 14.8672 9.63247V22.2321L26.312 10.7893C26.9491 10.1523 26.9491 9.11707 26.312 8.48001V8.47779Z" fill="#00FFA7"/>
<path d="M9.00442 28.1182L12.2805 24.8423L12.2716 20.2324V9.63247C12.2716 8.73218 11.5394 8 10.6391 8C10.6391 8 10.6391 8 10.6369 8C10.6369 8 10.6369 8 10.6347 8C9.73219 8 9 8.73218 9 9.63247V23.024C9 23.0572 9.00221 23.0903 9.00442 23.1213V28.116V28.1182Z" fill="#FFD119"/>
<path d="M32.211 16.5691L17.5676 31.2126C16.9306 31.8497 16.9306 32.8849 17.5676 33.522C17.8862 33.8405 18.3042 33.9998 18.7223 33.9998C19.1404 33.9998 19.5584 33.8405 19.877 33.522L34.5204 18.8784C35.1574 18.2414 35.1574 17.2062 34.5204 16.5691C33.8833 15.932 32.8481 15.932 32.211 16.5691Z" fill="#3A7CED"/>
<path d="M32.2133 24.5755L25.5794 31.2093C24.9423 31.8463 24.9423 32.8816 25.5794 33.5186C25.8979 33.8371 26.316 33.9964 26.734 33.9964C27.1521 33.9964 27.5702 33.8371 27.8887 33.5186L34.5226 26.8848C35.1597 26.2477 35.1597 25.2125 34.5226 24.5755C33.8856 23.9384 32.8503 23.9384 32.2133 24.5755Z" fill="#861FAC"/>
<path d="M45.406 9.64498C45.1341 9.34424 45 8.9741 45 8.5307C45 8.04488 45.145 7.66703 45.4387 7.40099C45.7287 7.13495 46.0731 7 46.4719 7C46.8706 7 47.2078 7.13495 47.487 7.40099C47.7697 7.66703 47.9075 8.04488 47.9075 8.5307C47.9075 8.9741 47.7661 9.34424 47.487 9.64498C47.2042 9.94573 46.8561 10.0922 46.4392 10.0922C46.0223 10.0922 45.6779 9.94187 45.406 9.64498ZM45.7976 31.8343C45.6199 31.6454 45.5329 31.4063 45.5329 31.121V14.9195C45.5329 14.6111 45.6199 14.3643 45.7976 14.187C45.9752 14.0096 46.2 13.9209 46.4719 13.9209C46.7619 13.9209 46.9939 14.0096 47.1607 14.187C47.3274 14.3643 47.4108 14.6072 47.4108 14.9195V31.121C47.4108 31.4102 47.3274 31.6492 47.1607 31.8343C46.9939 32.0232 46.7655 32.1158 46.4719 32.1158C46.2 32.1158 45.9752 32.0232 45.7976 31.8343Z" fill="white"/>
<path d="M67.0206 14.8204C67.0206 14.9746 66.9989 15.098 66.959 15.1867L59.9223 31.4537C59.7121 31.9203 59.3785 32.1516 58.9217 32.1516C58.7332 32.1516 58.5628 32.0899 58.407 31.9704C58.2511 31.847 58.1314 31.6774 58.0481 31.4537L50.9171 15.2214C50.8736 15.1327 50.8555 15.0093 50.8555 14.8551C50.8555 14.4541 51.0331 14.1688 51.3884 13.9914C51.5153 13.9259 51.6385 13.8912 51.7654 13.8912C52.1207 13.8912 52.3817 14.0801 52.5485 14.458L58.9616 29.229L65.2805 14.4271C65.4473 14.0493 65.7192 13.8604 66.0926 13.8604C66.2376 13.8604 66.3753 13.8951 66.4986 13.9606C66.8539 14.138 67.0315 14.4271 67.0315 14.8243L67.0206 14.8204Z" fill="white"/>
<path d="M72.242 31.1015C70.908 30.2918 69.8603 29.1776 69.099 27.7587C68.3377 26.3398 67.957 24.7667 67.957 23.0355C67.957 21.3043 68.3377 19.6965 69.099 18.2776C69.8603 16.8587 70.908 15.7444 72.242 14.9347C73.5761 14.1251 75.0661 13.7202 76.7155 13.7202C78.365 13.7202 79.8224 14.1251 81.1564 14.9347C82.4905 15.7444 83.5382 16.8587 84.2995 18.2776C85.0608 19.6965 85.4414 21.2812 85.4414 23.0355C85.4414 24.7898 85.0608 26.3398 84.2995 27.7587C83.5382 29.1776 82.4905 30.2918 81.1564 31.1015C79.8224 31.9112 78.3396 32.3161 76.7155 32.3161C75.0915 32.3161 73.5761 31.9112 72.242 31.1015ZM80.2175 29.4899C81.2616 28.846 82.0772 27.9592 82.6718 26.8295C83.2663 25.6998 83.5636 24.4351 83.5636 23.0355C83.5636 21.6359 83.2663 20.3751 82.6718 19.2415C82.0772 18.1118 81.2579 17.2173 80.2175 16.5618C79.1734 15.9064 78.0061 15.5825 76.7155 15.5825C75.425 15.5825 74.254 15.9102 73.2136 16.5618C72.1695 17.2173 71.3466 18.108 70.7412 19.2415C70.1358 20.3712 69.8349 21.6359 69.8349 23.0355C69.8349 24.4351 70.1358 25.6959 70.7412 26.8295C71.3466 27.9592 72.1695 28.846 73.2136 29.4899C74.254 30.1338 75.425 30.4538 76.7155 30.4538C78.0061 30.4538 79.1734 30.1338 80.2175 29.4899Z" fill="white"/>
<path d="M103.707 14.7202C103.707 14.8088 103.663 14.9631 103.58 15.1867L93.0704 39.4041C92.8819 39.8012 92.6426 40.0017 92.3526 40.0017C92.2293 40.0017 92.0807 39.967 91.9139 39.9015C91.5188 39.7241 91.3194 39.4697 91.3194 39.1381C91.3194 39.0494 91.3629 38.8952 91.4463 38.6715L94.5749 31.4846C94.5531 31.4614 94.5133 31.3843 94.448 31.2532L87.5998 15.2869C87.5164 15.1096 87.4766 14.9322 87.4766 14.7549C87.4766 14.4233 87.6542 14.1688 88.0095 13.9914C88.1762 13.9028 88.343 13.8604 88.5098 13.8604C88.8215 13.8604 89.0608 14.0493 89.2276 14.4271L95.5755 29.1982L101.956 14.4618C102.144 14.0647 102.384 13.8642 102.674 13.8642C102.819 13.8642 102.967 13.8989 103.112 13.9645C103.508 14.1418 103.707 14.3963 103.707 14.7279V14.7202Z" fill="white"/>
<path d="M117.531 14.9347C118.865 15.7444 119.913 16.8587 120.674 18.2776C121.436 19.6965 121.816 21.2812 121.816 23.0355V31.1208C121.816 31.41 121.733 31.649 121.566 31.8341C121.399 32.023 121.171 32.1156 120.877 32.1156C120.605 32.1156 120.381 32.023 120.203 31.8341C120.025 31.6452 119.938 31.4061 119.938 31.1208V28.526C119.25 29.7019 118.307 30.6273 117.107 31.302C115.907 31.9806 114.569 32.3161 113.087 32.3161C111.441 32.3161 109.947 31.9112 108.613 31.1015C107.279 30.2918 106.231 29.1776 105.47 27.7587C104.709 26.3398 104.328 24.7667 104.328 23.0355C104.328 21.3043 104.709 19.6965 105.47 18.2776C106.231 16.8587 107.279 15.7444 108.613 14.9347C109.947 14.1251 111.437 13.7202 113.087 13.7202C114.736 13.7202 116.193 14.1251 117.528 14.9347H117.531ZM116.592 29.4899C117.636 28.846 118.452 27.9592 119.046 26.8295C119.641 25.6998 119.938 24.4351 119.938 23.0355C119.938 21.6359 119.641 20.3751 119.046 19.2415C118.452 18.1118 117.633 17.2173 116.592 16.5618C115.548 15.9064 114.381 15.5825 113.09 15.5825C111.8 15.5825 110.629 15.9102 109.588 16.5618C108.544 17.2173 107.721 18.108 107.116 19.2415C106.511 20.3712 106.21 21.6359 106.21 23.0355C106.21 24.4351 106.511 25.6959 107.116 26.8295C107.721 27.9592 108.544 28.846 109.588 29.4899C110.632 30.1338 111.8 30.4538 113.09 30.4538C114.381 30.4538 115.552 30.1338 116.592 29.4899Z" fill="white"/>
<path d="M137.781 14.6857C138.981 15.3527 139.916 16.3205 140.594 17.5967C141.272 18.8729 141.609 20.3959 141.609 22.1695V31.1185C141.609 31.4077 141.518 31.6467 141.344 31.8318C141.17 32.0169 140.942 32.1133 140.674 32.1133C140.405 32.1133 140.177 32.0207 140.003 31.8318C139.825 31.6429 139.738 31.4038 139.738 31.1185V22.1695C139.738 20.0643 139.18 18.4565 138.064 17.3461C136.947 16.2357 135.493 15.6843 133.702 15.6843C132.597 15.6843 131.592 15.9118 130.682 16.3667C129.776 16.8217 129.062 17.454 128.54 18.2637C128.018 19.0734 127.757 19.9641 127.757 20.9434V31.1224C127.757 31.4115 127.673 31.6506 127.507 31.8357C127.34 32.0246 127.112 32.1171 126.818 32.1171C126.546 32.1171 126.321 32.0246 126.144 31.8357C125.966 31.6467 125.879 31.4077 125.879 31.1224V14.9209C125.879 14.6124 125.966 14.3657 126.144 14.1883C126.321 14.0109 126.546 13.9223 126.818 13.9223C127.108 13.9223 127.34 14.0109 127.507 14.1883C127.673 14.3657 127.757 14.6086 127.757 14.9209V16.6521C128.464 15.7229 129.33 14.9941 130.353 14.4736C131.375 13.9531 132.488 13.6909 133.699 13.6909C135.221 13.6909 136.581 14.0225 137.781 14.6895V14.6857Z" fill="white"/>
<path d="M154.736 30.3679C154.914 30.5568 155.001 30.8074 155.001 31.1159C155.001 31.405 154.91 31.6441 154.736 31.8292C154.562 32.0142 154.323 32.1106 154.033 32.1106H153.315C152.169 32.1106 151.147 31.833 150.251 31.2778C149.356 30.7226 148.656 29.963 148.156 28.9991C147.656 28.0352 147.406 26.944 147.406 25.7218V16.3757H144.966C144.716 16.3757 144.513 16.2909 144.357 16.1251C144.201 15.9593 144.121 15.7434 144.121 15.4773C144.121 15.2113 144.201 14.9954 144.357 14.8296C144.513 14.6638 144.716 14.5789 144.966 14.5789H147.406V9.15788C147.406 8.84557 147.493 8.59881 147.67 8.40988C147.848 8.22095 148.073 8.12842 148.341 8.12842C148.631 8.12842 148.867 8.22481 149.044 8.40988C149.222 8.59881 149.309 8.84943 149.309 9.15788V14.5789H153.438C153.688 14.5789 153.891 14.6638 154.047 14.8296C154.203 14.9954 154.283 15.2113 154.283 15.4773C154.283 15.7434 154.203 15.9593 154.047 16.1251C153.891 16.2909 153.688 16.3757 153.438 16.3757H149.309V25.7218C149.309 27.0096 149.682 28.0545 150.436 28.8642C151.187 29.6739 152.158 30.0787 153.344 30.0787H154.033C154.326 30.0787 154.558 30.1751 154.736 30.3602V30.3679Z" fill="white"/>
</svg>
