<svg xmlns="http://www.w3.org/2000/svg" width="167" height="44" viewBox="0 0 167 44" fill="none">
  <g clip-path="url(#clip0_11655_57185)">
    <path d="M38.9333 8.4613L4.25553 43.2684C3.76964 43.7561 3.13189 44 2.49415 44C1.8564 44 1.21866 43.7561 0.732758 43.2684C-0.239044 42.293 -0.239044 40.7079 0.732758 39.7325L35.4105 4.922C36.3823 3.94657 37.9615 3.94657 38.9333 4.922C39.9051 5.89742 39.9051 7.48249 38.9333 8.45791V8.4613Z" fill="#3CBDFF"/>
    <path d="M26.4079 4.922C25.4361 3.94657 23.8569 3.94657 22.8851 4.922L13.9331 13.9074V6.68995C13.9331 5.31149 12.8162 4.19043 11.4395 4.19043C10.0628 4.19043 8.94922 5.31149 8.94922 6.68995V25.9817L26.4079 8.4613C27.3797 7.48587 27.3797 5.90081 26.4079 4.92539V4.922Z" fill="#00FFA7"/>
    <path d="M0.00674876 34.9942L5.00421 29.9782L4.99071 22.9199V6.68995C4.99071 5.31149 3.87379 4.19043 2.50042 4.19043C2.50042 4.19043 2.50042 4.19043 2.49704 4.19043C2.49704 4.19043 2.49704 4.19043 2.49367 4.19043C1.11692 4.19043 0 5.31149 0 6.68995V27.1942C0 27.245 0.00337438 27.2958 0.00674876 27.3432V34.9908V34.9942Z" fill="#FFD119"/>
    <path d="M35.4105 17.3102L13.0726 39.7314C12.1008 40.7069 12.1008 42.2919 13.0726 43.2673C13.5585 43.7551 14.1962 43.9989 14.834 43.9989C15.4717 43.9989 16.1095 43.7551 16.5954 43.2673L38.9333 20.8461C39.9051 19.8707 39.9051 18.2856 38.9333 17.3102C37.9615 16.3348 36.3823 16.3348 35.4105 17.3102Z" fill="#3A7CED"/>
    <path d="M35.4111 29.5748L25.2913 39.7321C24.3196 40.7075 24.3196 42.2926 25.2913 43.268C25.7772 43.7557 26.415 43.9996 27.0528 43.9996C27.6905 43.9996 28.3283 43.7557 28.8142 43.268L38.934 33.1107C39.9058 32.1353 39.9058 30.5502 38.934 29.5748C37.9622 28.5994 36.383 28.5994 35.4111 29.5748Z" fill="#861FAC"/>
    <path d="M53.4683 8.3088C53.207 7.99938 53.0781 7.61854 53.0781 7.16232C53.0781 6.66248 53.2174 6.27368 53.4996 5.99991C53.7783 5.72623 54.1092 5.5874 54.4923 5.5874C54.8755 5.5874 55.1995 5.72623 55.4677 5.99991C55.7395 6.27368 55.8718 6.66248 55.8718 7.16232C55.8718 7.61854 55.7359 7.99938 55.4677 8.3088C55.196 8.61823 54.8616 8.76891 54.461 8.76891C54.0604 8.76891 53.7295 8.61425 53.4683 8.3088ZM53.8445 31.1392C53.6738 30.9448 53.5902 30.6988 53.5902 30.4052V13.7357C53.5902 13.4183 53.6738 13.1644 53.8445 12.982C54.0151 12.7994 54.2311 12.7082 54.4923 12.7082C54.771 12.7082 54.994 12.7994 55.1542 12.982C55.3144 13.1644 55.3946 13.4144 55.3946 13.7357V30.4052C55.3946 30.7028 55.3144 30.9487 55.1542 31.1392C54.994 31.3335 54.7745 31.4287 54.4923 31.4287C54.2311 31.4287 54.0151 31.3335 53.8445 31.1392Z" fill="black"/>
    <path d="M75.4152 13.5611C75.4152 13.7201 75.3928 13.8473 75.3517 13.9387L68.0594 30.7091C67.8416 31.1899 67.4958 31.4284 67.023 31.4284C66.8277 31.4284 66.6509 31.3649 66.4888 31.2416C66.3276 31.1145 66.2036 30.9396 66.1176 30.7091L58.7276 13.9745C58.6826 13.8831 58.6641 13.7559 58.6641 13.5969C58.6641 13.1835 58.8477 12.8893 59.2159 12.7065C59.3478 12.6389 59.4757 12.6031 59.6066 12.6031C59.9749 12.6031 60.2454 12.7979 60.4183 13.1875L67.0641 28.4155L73.6122 13.1556C73.785 12.7661 74.0663 12.5713 74.4531 12.5713C74.6035 12.5713 74.7462 12.6071 74.8741 12.6747C75.2423 12.8575 75.426 13.1557 75.426 13.5651L75.4152 13.5611Z" fill="black"/>
    <path d="M81.1041 30.1514C79.7713 29.3 78.7256 28.1282 77.965 26.636C77.2045 25.1439 76.8242 23.4896 76.8242 21.6691C76.8242 19.8485 77.2045 18.1578 77.965 16.6656C78.7256 15.1735 79.7713 14.0017 81.1041 13.1502C82.436 12.2987 83.9241 11.873 85.5713 11.873C87.2185 11.873 88.6737 12.2987 90.0056 13.1502C91.3375 14.0017 92.3841 15.1735 93.1447 16.6656C93.9043 18.1578 94.2845 19.8242 94.2845 21.6691C94.2845 23.5139 93.9043 25.1439 93.1447 26.636C92.3841 28.1282 91.3375 29.3 90.0056 30.1514C88.6737 31.0029 87.1931 31.4286 85.5713 31.4286C83.9495 31.4286 82.436 31.0029 81.1041 30.1514ZM89.0681 28.4565C90.111 27.7794 90.9252 26.8468 91.5191 25.6588C92.1121 24.4709 92.4095 23.1409 92.4095 21.6691C92.4095 20.1972 92.1121 18.8714 91.5191 17.6792C90.9252 16.4913 90.1072 15.5506 89.0681 14.8613C88.0252 14.172 86.8599 13.8314 85.5713 13.8314C84.2818 13.8314 83.1128 14.176 82.0736 14.8613C81.0316 15.5506 80.2099 16.4872 79.6047 17.6792C79.0004 18.8673 78.7001 20.1972 78.7001 21.6691C78.7001 23.1409 79.0004 24.4668 79.6047 25.6588C80.2099 26.8468 81.0316 27.7794 82.0736 28.4565C83.1128 29.1338 84.2818 29.4703 85.5713 29.4703C86.8599 29.4703 88.0252 29.1338 89.0681 28.4565Z" fill="black"/>
    <path d="M113.141 13.4442C113.141 13.5343 113.096 13.6909 113.009 13.9179L102.156 38.5043C101.961 38.9074 101.714 39.111 101.415 39.111C101.288 39.111 101.134 39.0757 100.962 39.0092C100.554 38.8291 100.347 38.5708 100.347 38.2341C100.347 38.1441 100.393 37.9876 100.479 37.7605L103.71 30.464C103.687 30.4405 103.646 30.3623 103.579 30.2292L96.5064 14.0197C96.4208 13.8396 96.3789 13.6595 96.3789 13.4795C96.3789 13.1428 96.5629 12.8845 96.9299 12.7044C97.1021 12.6144 97.2744 12.5713 97.4467 12.5713C97.7679 12.5713 98.0152 12.7631 98.1875 13.1467L104.743 28.1428L111.332 13.182C111.527 12.7788 111.774 12.5752 112.074 12.5752C112.223 12.5752 112.377 12.6105 112.527 12.677C112.934 12.8571 113.141 13.1154 113.141 13.4521V13.4442Z" fill="black"/>
    <path d="M127.549 13.1502C128.934 14.0017 130.023 15.1735 130.812 16.6656C131.603 18.1578 131.999 19.8242 131.999 21.6691V30.1717C131.999 30.4758 131.911 30.7272 131.738 30.9218C131.566 31.1205 131.328 31.2178 131.024 31.2178C130.741 31.2178 130.508 31.1205 130.323 30.9218C130.139 30.7231 130.049 30.4718 130.049 30.1717V27.4429C129.334 28.6796 128.355 29.6527 127.109 30.3623C125.863 31.0759 124.474 31.4286 122.935 31.4286C121.225 31.4286 119.675 31.0029 118.289 30.1514C116.904 29.3 115.817 28.1282 115.026 26.636C114.235 25.1439 113.84 23.4896 113.84 21.6691C113.84 19.8485 114.235 18.1578 115.026 16.6656C115.817 15.1735 116.904 14.0017 118.289 13.1502C119.675 12.2987 121.222 11.873 122.935 11.873C124.647 11.873 126.161 12.2987 127.546 13.1502H127.549ZM126.575 28.4565C127.658 27.7794 128.506 26.8468 129.122 25.6588C129.74 24.4709 130.049 23.1409 130.049 21.6691C130.049 20.1972 129.74 18.8714 129.122 17.6792C128.506 16.4913 127.654 15.5506 126.575 14.8613C125.49 14.172 124.279 13.8314 122.938 13.8314C121.598 13.8314 120.382 14.176 119.302 14.8613C118.218 15.5506 117.363 16.4872 116.735 17.6792C116.107 18.8673 115.794 20.1972 115.794 21.6691C115.794 23.1409 116.107 24.4668 116.735 25.6588C117.363 26.8468 118.218 27.7794 119.302 28.4565C120.386 29.1338 121.598 29.4703 122.938 29.4703C124.279 29.4703 125.494 29.1338 126.575 28.4565Z" fill="black"/>
    <path d="M148.342 12.9288C149.567 13.6367 150.522 14.6637 151.214 16.0182C151.906 17.3726 152.251 18.9889 152.251 20.8713V30.3688C152.251 30.6756 152.159 30.9294 151.981 31.1258C151.803 31.3222 151.569 31.4245 151.296 31.4245C151.022 31.4245 150.789 31.3263 150.611 31.1258C150.43 30.9252 150.341 30.6716 150.341 30.3688V20.8713C150.341 18.6371 149.77 16.9307 148.631 15.7522C147.49 14.5737 146.006 13.9886 144.177 13.9886C143.048 13.9886 142.022 14.23 141.093 14.7128C140.167 15.1957 139.438 15.8668 138.905 16.7261C138.372 17.5854 138.105 18.5307 138.105 19.57V30.3729C138.105 30.6797 138.02 30.9335 137.85 31.1299C137.679 31.3304 137.446 31.4286 137.146 31.4286C136.868 31.4286 136.639 31.3304 136.457 31.1299C136.276 30.9294 136.188 30.6756 136.188 30.3729V13.1784C136.188 12.851 136.276 12.5891 136.457 12.4009C136.639 12.2127 136.868 12.1186 137.146 12.1186C137.443 12.1186 137.679 12.2127 137.85 12.4009C138.02 12.5891 138.105 12.8469 138.105 13.1784V15.0157C138.827 14.0295 139.711 13.2561 140.756 12.7037C141.799 12.1512 142.936 11.873 144.173 11.873C145.728 11.873 147.117 12.2249 148.342 12.9329V12.9288Z" fill="black"/>
    <path d="M165.95 29.6015C166.132 29.7995 166.221 30.0623 166.221 30.3856C166.221 30.6888 166.129 30.9395 165.95 31.1335C165.771 31.3275 165.525 31.4285 165.228 31.4285H164.49C163.314 31.4285 162.264 31.1375 161.344 30.5554C160.424 29.9733 159.706 29.177 159.192 28.1665C158.678 27.1558 158.421 26.0119 158.421 24.7305V14.932H155.914C155.658 14.932 155.45 14.8431 155.289 14.6693C155.129 14.4955 155.047 14.2691 155.047 13.9902C155.047 13.7112 155.129 13.4849 155.289 13.3111C155.45 13.1373 155.658 13.0484 155.914 13.0484H158.421V7.36487C158.421 7.0375 158.51 6.77883 158.693 6.58074C158.875 6.38266 159.105 6.28564 159.381 6.28564C159.68 6.28564 159.922 6.38672 160.104 6.58074C160.287 6.77883 160.376 7.04156 160.376 7.36487V13.0484H164.617C164.874 13.0484 165.083 13.1373 165.243 13.3111C165.402 13.4849 165.485 13.7112 165.485 13.9902C165.485 14.2691 165.402 14.4955 165.243 14.6693C165.083 14.8431 164.874 14.932 164.617 14.932H160.376V24.7305C160.376 26.0806 160.759 27.176 161.534 28.0249C162.304 28.8739 163.302 29.2983 164.52 29.2983H165.228C165.529 29.2983 165.767 29.3993 165.95 29.5934V29.6015Z" fill="black"/>
  </g>
  <defs>
    <clipPath id="clip0_11655_57185">
      <rect width="166.222" height="44" fill="white"/>
    </clipPath>
  </defs>
</svg>