<svg width="88" height="25" viewBox="0 0 88 25" fill="none" xmlns="http://www.w3.org/2000/svg">
<g clip-path="url(#clip0_16261_3389)">
<path d="M20.4809 5.39455L2.27507 23.6683C2.01998 23.9243 1.68516 24.0523 1.35034 24.0523C1.01553 24.0523 0.680712 23.9243 0.425616 23.6683C-0.0845803 23.1562 -0.0845803 22.324 0.425616 21.8119L18.6314 3.53642C19.1416 3.02432 19.9707 3.02432 20.4809 3.53642C20.9911 4.04852 20.9911 4.88068 20.4809 5.39277V5.39455Z" fill="#3CBDFF"/>
<path d="M13.9002 3.53642C13.39 3.02432 12.5609 3.02432 12.0507 3.53642L7.3509 8.25377V4.46459C7.3509 3.7409 6.76454 3.15234 6.04177 3.15234C5.319 3.15234 4.73438 3.7409 4.73438 4.46459V14.5927L13.9002 5.39455C14.4104 4.88245 14.4104 4.05029 13.9002 3.5382V3.53642Z" fill="#00FFA7"/>
<path d="M0.0347931 19.3243L2.65846 16.6909L2.65137 12.9853V4.46459C2.65137 3.7409 2.06499 3.15234 1.34397 3.15234C1.34397 3.15234 1.34397 3.15234 1.3422 3.15234C1.3422 3.15234 1.3422 3.15234 1.34043 3.15234C0.617633 3.15234 0.03125 3.7409 0.03125 4.46459V15.2293C0.03125 15.256 0.0330215 15.2827 0.0347931 15.3076V19.3226V19.3243Z" fill="#FFD119"/>
<path d="M18.6257 10.0403L6.89826 21.8115C6.38808 22.3236 6.38808 23.1557 6.89826 23.6678C7.15337 23.9239 7.48818 24.0519 7.82301 24.0519C8.15782 24.0519 8.49263 23.9239 8.74774 23.6678L20.4751 11.8967C20.9853 11.3846 20.9853 10.5524 20.4751 10.0403C19.9649 9.52822 19.1359 9.52822 18.6257 10.0403Z" fill="#3A7CED"/>
<path d="M18.6252 16.4778L13.3123 21.8104C12.8021 22.3225 12.8021 23.1547 13.3123 23.6667C13.5674 23.9228 13.9023 24.0508 14.2371 24.0508C14.5719 24.0508 14.9067 23.9228 15.1618 23.6667L20.4747 18.3342C20.9849 17.8221 20.9849 16.9899 20.4747 16.4778C19.9645 15.9657 19.1354 15.9657 18.6252 16.4778Z" fill="#861FAC"/>
<path d="M28.0916 5.31155C27.9544 5.1491 27.8867 4.94916 27.8867 4.70965C27.8867 4.44723 27.9598 4.24311 28.108 4.09938C28.2543 3.9557 28.4281 3.88281 28.6292 3.88281C28.8304 3.88281 29.0004 3.9557 29.1413 4.09938C29.2839 4.24311 29.3534 4.44723 29.3534 4.70965C29.3534 4.94916 29.2821 5.1491 29.1413 5.31155C28.9986 5.474 28.823 5.55311 28.6127 5.55311C28.4024 5.55311 28.2287 5.47191 28.0916 5.31155ZM28.2891 17.2975C28.1994 17.1954 28.1556 17.0663 28.1556 16.9121V8.16066C28.1556 7.99402 28.1994 7.86075 28.2891 7.76496C28.3786 7.66913 28.4921 7.62123 28.6292 7.62123C28.7755 7.62123 28.8925 7.66913 28.9767 7.76496C29.0608 7.86075 29.1029 7.99198 29.1029 8.16066V16.9121C29.1029 17.0684 29.0608 17.1975 28.9767 17.2975C28.8925 17.3995 28.7773 17.4495 28.6292 17.4495C28.4921 17.4495 28.3786 17.3995 28.2891 17.2975Z" fill="white"/>
<path d="M39.6108 8.06261C39.6108 8.14607 39.599 8.21287 39.5774 8.26085L35.7489 17.0653C35.6346 17.3178 35.4531 17.443 35.2049 17.443C35.1023 17.443 35.0095 17.4096 34.9244 17.3449C34.8398 17.2782 34.7746 17.1863 34.7295 17.0653L30.8497 8.27966C30.8262 8.23167 30.8164 8.16488 30.8164 8.08142C30.8164 7.86437 30.9128 7.70993 31.1061 7.61396C31.1754 7.57849 31.2425 7.55968 31.3113 7.55968C31.5046 7.55968 31.6466 7.66194 31.7374 7.86647L35.2264 15.8612L38.6642 7.84976C38.7549 7.64523 38.9026 7.54297 39.1057 7.54297C39.1846 7.54297 39.2595 7.56178 39.3267 7.59724C39.52 7.69322 39.6164 7.84976 39.6164 8.06471L39.6108 8.06261Z" fill="white"/>
<path d="M42.5985 16.7798C41.8988 16.3327 41.3498 15.7175 40.9505 14.9342C40.5512 14.1508 40.3516 13.2823 40.3516 12.3265C40.3516 11.3707 40.5512 10.4831 40.9505 9.69969C41.3498 8.91632 41.8988 8.30113 42.5985 7.8541C43.2977 7.40708 44.079 7.18359 44.9438 7.18359C45.8086 7.18359 46.5725 7.40708 47.2718 7.8541C47.971 8.30113 48.5205 8.91632 48.9198 9.69969C49.3186 10.4831 49.5182 11.3579 49.5182 12.3265C49.5182 13.2951 49.3186 14.1508 48.9198 14.9342C48.5205 15.7175 47.971 16.3327 47.2718 16.7798C46.5725 17.2268 45.7952 17.4503 44.9438 17.4503C44.0923 17.4503 43.2977 17.2268 42.5985 16.7798ZM46.7796 15.8899C47.3271 15.5344 47.7546 15.0448 48.0664 14.4211C48.3777 13.7974 48.5339 13.0992 48.5339 12.3265C48.5339 11.5538 48.3777 10.8577 48.0664 10.2318C47.7546 9.60815 47.3251 9.11432 46.7796 8.75242C46.2321 8.39053 45.6203 8.21172 44.9438 8.21172C44.2668 8.21172 43.653 8.39267 43.1075 8.75242C42.5605 9.11432 42.1291 9.60601 41.8113 10.2318C41.4941 10.8556 41.3364 11.5538 41.3364 12.3265C41.3364 13.0992 41.4941 13.7953 41.8113 14.4211C42.1291 15.0448 42.5605 15.5344 43.1075 15.8899C43.653 16.2455 44.2668 16.4221 44.9438 16.4221C45.6203 16.4221 46.2321 16.2455 46.7796 15.8899Z" fill="white"/>
<path d="M59.4211 8.00125C59.4211 8.04856 59.3976 8.13074 59.3521 8.24992L53.6541 21.1578C53.5519 21.3694 53.4221 21.4763 53.2652 21.4763C53.1982 21.4763 53.1175 21.4578 53.027 21.4229C52.8129 21.3283 52.7046 21.1927 52.7046 21.016C52.7046 20.9687 52.7286 20.8865 52.7736 20.7673L54.4697 16.9367C54.4579 16.9243 54.4365 16.8833 54.4012 16.8134L50.688 8.30337C50.6431 8.20885 50.6211 8.11429 50.6211 8.01977C50.6211 7.84302 50.7177 7.70739 50.9103 7.61287C51.0008 7.56562 51.0912 7.54297 51.1817 7.54297C51.3503 7.54297 51.4801 7.64367 51.5706 7.84508L55.0124 15.718L58.4716 7.86361C58.5738 7.65193 58.7036 7.54503 58.861 7.54503C58.9392 7.54503 59.0199 7.56355 59.0986 7.59848C59.3128 7.693 59.4211 7.82863 59.4211 8.00538V8.00125Z" fill="white"/>
<path d="M66.9788 7.8541C67.7058 8.30113 68.2772 8.91632 68.6918 9.69969C69.107 10.4831 69.3146 11.3579 69.3146 12.3265V16.7904C69.3146 16.9501 69.2689 17.082 69.1779 17.1842C69.0875 17.2885 68.9626 17.3396 68.8028 17.3396C68.6543 17.3396 68.532 17.2885 68.4349 17.1842C68.3383 17.0799 68.2911 16.9479 68.2911 16.7904V15.3578C67.9155 16.007 67.4016 16.5179 66.7476 16.8904C66.0935 17.2651 65.3644 17.4503 64.5561 17.4503C63.6585 17.4503 62.8446 17.2268 62.1171 16.7798C61.39 16.3327 60.8192 15.7175 60.404 14.9342C59.9888 14.1508 59.7812 13.2823 59.7812 12.3265C59.7812 11.3707 59.9888 10.4831 60.404 9.69969C60.8192 8.91632 61.39 8.30113 62.1171 7.8541C62.8446 7.40708 63.657 7.18359 64.5561 7.18359C65.4548 7.18359 66.2497 7.40708 66.9767 7.8541H66.9788ZM66.467 15.8899C67.0358 15.5344 67.4808 15.0448 67.8045 14.4211C68.1287 13.7974 68.2911 13.0992 68.2911 12.3265C68.2911 11.5538 68.1287 10.8577 67.8045 10.2318C67.4808 9.60815 67.0338 9.11432 66.467 8.75242C65.8977 8.39053 65.2616 8.21172 64.5577 8.21172C63.8543 8.21172 63.2161 8.39267 62.6489 8.75242C62.0796 9.11432 61.631 9.60601 61.3011 10.2318C60.9713 10.8556 60.8073 11.5538 60.8073 12.3265C60.8073 13.0992 60.9713 13.7953 61.3011 14.4211C61.631 15.0448 62.0796 15.5344 62.6489 15.8899C63.2182 16.2455 63.8543 16.4221 64.5577 16.4221C65.2616 16.4221 65.8998 16.2455 66.467 15.8899Z" fill="white"/>
<path d="M77.8967 7.73785C78.54 8.10949 79.0413 8.6487 79.4047 9.35978C79.768 10.0709 79.949 10.9194 79.949 11.9077V16.8938C79.949 17.0549 79.9004 17.1882 79.807 17.2913C79.714 17.3944 79.5912 17.4481 79.4477 17.4481C79.3036 17.4481 79.1813 17.3965 79.0878 17.2913C78.9928 17.186 78.9463 17.0528 78.9463 16.8938V11.9077C78.9463 10.7347 78.6467 9.83886 78.0483 9.22015C77.4495 8.60145 76.6702 8.29426 75.7101 8.29426C75.1173 8.29426 74.5786 8.421 74.0909 8.67448C73.6048 8.92801 73.2222 9.28029 72.9422 9.73143C72.6623 10.1826 72.5223 10.6788 72.5223 11.2245V16.896C72.5223 17.0571 72.4778 17.1903 72.3884 17.2934C72.2989 17.3987 72.1761 17.4503 72.019 17.4503C71.8729 17.4503 71.7526 17.3987 71.6571 17.2934C71.5621 17.1882 71.5156 17.0549 71.5156 16.896V7.8689C71.5156 7.69702 71.5621 7.5595 71.6571 7.46069C71.7526 7.36189 71.8729 7.31249 72.019 7.31249C72.1746 7.31249 72.2989 7.36189 72.3884 7.46069C72.4778 7.5595 72.5223 7.69487 72.5223 7.8689V8.83347C72.9013 8.31572 73.3657 7.90967 73.914 7.61968C74.4618 7.32964 75.0587 7.18359 75.708 7.18359C76.5242 7.18359 77.2534 7.36831 77.8967 7.74V7.73785Z" fill="white"/>
<path d="M87.1462 16.4908C87.2418 16.5948 87.2885 16.7327 87.2885 16.9025C87.2885 17.0617 87.2397 17.1933 87.1462 17.2951C87.0522 17.397 86.9231 17.45 86.767 17.45H86.3797C85.7622 17.45 85.2107 17.2972 84.7278 16.9916C84.2449 16.686 83.8678 16.268 83.5979 15.7374C83.328 15.2069 83.1933 14.6063 83.1933 13.9336V8.78935H81.8773C81.7426 8.78935 81.6333 8.74268 81.5489 8.65142C81.4651 8.56016 81.4219 8.4413 81.4219 8.2949C81.4219 8.14844 81.4651 8.02963 81.5489 7.93837C81.6333 7.84711 81.7426 7.80044 81.8773 7.80044H83.1933V4.81659C83.1933 4.64472 83.24 4.50892 83.3361 4.40493C83.4316 4.30093 83.5526 4.25 83.6975 4.25C83.854 4.25 83.9811 4.30306 84.0767 4.40493C84.1727 4.50892 84.2195 4.64686 84.2195 4.81659V7.80044H86.4463C86.581 7.80044 86.6908 7.84711 86.7747 7.93837C86.8585 8.02963 86.9017 8.14844 86.9017 8.2949C86.9017 8.4413 86.8585 8.56016 86.7747 8.65142C86.6908 8.74268 86.581 8.78935 86.4463 8.78935H84.2195V13.9336C84.2195 14.6423 84.4208 15.2175 84.8274 15.6631C85.232 16.1088 85.7561 16.3316 86.3955 16.3316H86.767C86.9251 16.3316 87.0502 16.3847 87.1462 16.4866V16.4908Z" fill="white"/>
</g>
<defs>
<clipPath id="clip0_16261_3389">
<rect width="87.2667" height="23.1" fill="white" transform="translate(0.0351562 0.949219)"/>
</clipPath>
</defs>
</svg>
