<svg width="217" height="98" viewBox="0 0 217 98" fill="none" xmlns="http://www.w3.org/2000/svg">
<g clip-path="url(#clip0_16449_86737)">
<path d="M80.0117 69.8629L85.1553 78.4214H93.4944L98.5302 69.5664H93.9757L89.271 78.1288L84.239 69.5664L80.0117 69.6319V69.8629Z" fill="white"/>
<path d="M79.5352 88.2663V87.6426L85.1562 78.4219H89.2718H93.4953L99.1933 88.2663H94.3769L89.2141 78.5258L83.9627 88.2663H79.5352Z" fill="white"/>
<path d="M22.1944 42.2754C22.0049 43.5862 21.6289 44.8632 21.0779 46.0676C20.5606 47.2167 19.8363 48.2608 18.9411 49.1476C18.0348 50.0356 16.9619 50.7356 15.7841 51.2074C14.4542 51.7284 13.035 51.9834 11.6069 51.9581C10.0267 51.9762 8.45787 51.6886 6.98686 51.1111C5.59779 50.5606 4.3608 49.6853 3.37941 48.5586C2.33144 47.3391 1.54519 45.9173 1.06941 44.3813C0.489236 42.5033 0.212406 40.5447 0.24936 38.5794C0.223093 36.606 0.493031 34.6399 1.05016 32.7466C1.51413 31.1481 2.28862 29.6567 3.32936 28.3576C4.2957 27.1741 5.52415 26.2317 6.91756 25.6049C8.42153 24.9456 10.0496 24.6174 11.6916 24.6424C13.1506 24.6181 14.6029 24.846 15.9843 25.3161C17.1593 25.7247 18.2396 26.3664 19.1606 27.2026C20.0418 28.022 20.7489 29.0106 21.2396 30.1094C21.7695 31.3042 22.0949 32.5797 22.2021 33.8824H18.6909C18.4111 31.9856 17.7181 30.4905 16.6119 29.3971C15.5056 28.3037 13.863 27.7609 11.6839 27.7686C9.11719 27.7686 7.15369 28.699 5.79336 30.5598C4.43303 32.4207 3.75286 35.0297 3.75286 38.3869C3.75286 41.7749 4.43944 44.38 5.81261 46.2024C7.18578 48.0247 9.07869 48.9384 11.4914 48.9436C13.2805 49.013 15.0266 48.3849 16.3616 47.1918C17.6321 46.024 18.4021 44.3877 18.6716 42.2831L22.1944 42.2754Z" fill="#FFFDFE"/>
<path d="M33.5512 51.9366C32.2002 51.9585 30.8584 51.7098 29.605 51.2051C28.4796 50.7495 27.4678 50.0531 26.6405 49.1646C25.8089 48.2542 25.1792 47.1783 24.7925 46.0076C24.3576 44.7047 24.1429 43.3385 24.1572 41.9651C24.1397 40.5773 24.3611 39.1968 24.8117 37.8841C25.2107 36.7146 25.8463 35.6399 26.679 34.7271C27.5062 33.8432 28.5185 33.153 29.6435 32.7058C30.888 32.2197 32.2153 31.9804 33.5512 32.0013C34.8691 31.9808 36.1779 32.2229 37.4012 32.7135C38.5072 33.1663 39.5045 33.8487 40.3272 34.7155C41.16 35.6176 41.7901 36.6875 42.1752 37.8533C42.6138 39.1817 42.8285 40.5739 42.8105 41.9728C42.8298 43.367 42.6084 44.7541 42.156 46.073C41.7542 47.2312 41.126 48.2978 40.308 49.2108C39.5003 50.091 38.5076 50.7813 37.4012 51.232C36.1779 51.7219 34.8687 51.9614 33.5512 51.9366ZM33.5512 49.1646C35.4762 49.1646 36.952 48.5421 37.9787 47.2973C39.0054 46.0525 39.5187 44.2751 39.5187 41.9651C39.5187 39.6551 39.0054 37.8841 37.9787 36.6521C36.952 35.4201 35.4762 34.8041 33.5512 34.8041C31.6262 34.8041 30.144 35.4201 29.1045 36.6521C28.065 37.8841 27.5516 39.6551 27.5645 41.9651C27.5645 44.252 28.0778 46.023 29.1045 47.2781C30.1311 48.5332 31.6134 49.162 33.5512 49.1646Z" fill="#FFFDFE"/>
<path d="M58.6497 51.8214V39.7016C58.673 38.9375 58.5622 38.1752 58.3224 37.4494C58.1368 36.922 57.8186 36.4513 57.3984 36.0826C56.9779 35.742 56.4834 35.5047 55.9547 35.3896C55.3349 35.2562 54.7022 35.1916 54.0682 35.1971C53.2423 35.1772 52.4217 35.3348 51.6619 35.6591C51.007 35.9466 50.4273 36.3814 49.9679 36.9296C49.5094 37.4838 49.1688 38.1257 48.9669 38.8161C48.7458 39.5528 48.6355 40.3184 48.6397 41.0876V51.8291H45.3672V32.8794H48.4857V37.2299C48.7079 36.4268 49.073 35.6704 49.5637 34.9969C50.0008 34.4036 50.5422 33.8949 51.1614 33.4954C51.7607 33.1121 52.4169 32.8263 53.1057 32.6484C53.7847 32.4718 54.4831 32.3813 55.1847 32.3789C57.1867 32.3789 58.8101 32.8922 60.0549 33.9189C61.2998 34.9456 61.9222 36.5882 61.9222 38.8469V51.8214H58.6497Z" fill="#FFFDFE"/>
<path d="M99.8368 42.0159L84.0248 42.089C84.1711 44.4298 84.9334 45.4193 86.1192 46.5627C87.305 47.7062 89.0529 48.0681 90.874 48.0681C92.1142 48.1251 93.3411 47.7911 94.3813 47.1133C95.3003 46.4445 95.9351 45.4554 96.16 44.3413H99.9638C99.762 45.3182 99.3695 46.2458 98.8088 47.0709C98.2467 47.9102 97.5498 48.9959 96.7568 49.6119C95.9409 50.2305 95.031 50.714 94.0617 51.0441C92.7755 51.4418 91.4419 51.6658 90.0962 51.7102C86.7737 51.7102 84.533 50.8401 82.7812 48.815C81.0295 46.7899 80.2865 45.0035 80.2865 41.3036C80.2658 39.7894 80.4934 38.282 80.9602 36.8415C81.3665 35.5833 82.0211 34.4194 82.8852 33.4188C83.7368 32.4531 84.8057 31.7036 86.0037 31.232C87.3415 30.7036 88.7697 30.442 90.2079 30.462C93.3264 30.462 95.7095 31.4438 97.3573 33.4073C99.0051 35.3708 99.8136 37.4267 99.8136 41.0072L99.8368 42.0159ZM90.2117 33.6344C88.3073 33.6344 86.8263 34.1837 85.7689 35.2822C84.7114 36.3807 84.13 37.9682 84.0248 40.0447H96.16C96.0445 37.9657 95.4952 36.3769 94.5122 35.2784C93.5292 34.1798 92.0995 33.6306 90.2233 33.6306L90.2117 33.6344Z" fill="#FFFDFE"/>
<path d="M133.459 42.3439L118.34 42.417C118.478 44.6539 119.179 45.6125 120.311 46.7059C121.443 47.7993 123.144 48.1304 124.889 48.1304C126.074 48.1852 127.247 47.866 128.242 47.218C129.122 46.5788 129.73 45.6319 129.944 44.5653H133.59C133.395 45.4991 133.023 46.3867 132.492 47.1795C131.953 47.9803 131.287 49.0275 130.525 49.6088C129.748 50.1997 128.881 50.6612 127.957 50.9756C126.727 51.3565 125.452 51.5715 124.165 51.6147C120.988 51.6147 118.844 50.7831 117.162 48.8465C115.479 46.91 114.775 45.2006 114.775 41.6663C114.756 40.2176 114.973 38.7755 115.418 37.3966C115.807 36.1932 116.434 35.0804 117.262 34.1241C118.078 33.2011 119.1 32.4835 120.245 32.0297C121.526 31.5307 122.891 31.2849 124.265 31.3059C127.25 31.3059 129.529 32.2453 131.102 34.1241C132.677 36.0029 133.451 37.9741 133.451 41.3929L133.459 42.3439ZM124.265 34.3166C122.44 34.3166 121.028 34.8415 120.03 35.8913C119.031 36.941 118.468 38.4695 118.34 40.4766H129.944C129.831 38.49 129.306 36.9706 128.369 35.9182C127.432 34.8659 126.064 34.332 124.265 34.3166Z" fill="#FFFDFE"/>
<path d="M196.42 42.4571L181.301 42.5303C181.439 44.7671 182.028 45.7835 183.164 46.8769C184.3 47.9703 186.109 48.2437 187.849 48.2437C189.036 48.298 190.211 47.9789 191.207 47.3312C192.085 46.6906 192.69 45.7441 192.905 44.6786H196.55C196.36 45.6137 195.987 46.502 195.453 47.2927C194.914 48.0935 194.248 49.1407 193.49 49.7221C192.711 50.3122 191.843 50.7736 190.918 51.0888C189.688 51.4701 188.413 51.685 187.126 51.7279C183.949 51.7279 181.809 50.8963 180.123 48.9598C178.436 47.0232 177.736 45.3138 177.736 41.7795C177.717 40.3308 177.934 38.8888 178.378 37.5099C178.768 36.3065 179.395 35.1936 180.223 34.2374C181.039 33.3152 182.061 32.5978 183.206 32.143C184.487 31.6444 185.852 31.3986 187.226 31.4192C190.211 31.4192 192.49 32.3586 194.063 34.2374C195.638 36.1162 196.416 38.0874 196.416 41.5062L196.42 42.4571ZM187.226 34.4414C185.406 34.4414 183.994 34.9663 182.991 36.0161C181.987 37.0658 181.428 38.5853 181.312 40.5745H192.916C192.806 38.5879 192.281 37.0684 191.341 36.0161C190.402 34.9637 189.03 34.4388 187.226 34.4414Z" fill="#FFFDFE"/>
<path d="M216.075 79.165L201.749 79.2304C201.88 81.3518 202.473 82.2334 203.543 83.2652C204.613 84.297 206.303 84.6435 207.955 84.6435C209.079 84.695 210.191 84.3935 211.135 83.7811C211.967 83.1735 212.541 82.2767 212.744 81.2671H216.209C216.028 82.1521 215.674 82.9931 215.17 83.7426C214.658 84.5126 214.015 85.4944 213.307 86.0526C212.571 86.6124 211.749 87.0492 210.873 87.3462C209.709 87.7082 208.5 87.9115 207.281 87.9507C204.271 87.9507 202.242 87.1807 200.644 85.3327C199.046 83.4847 198.384 81.8677 198.384 78.5259C198.366 77.154 198.572 75.7884 198.996 74.4834C199.364 73.343 199.957 72.2879 200.74 71.3803C201.514 70.507 202.482 69.8278 203.566 69.3975C204.78 68.9242 206.075 68.6914 207.378 68.7122C210.201 68.7122 212.359 69.6016 213.853 71.3803C215.347 73.1628 216.082 75.0224 216.082 78.2679L216.075 79.165ZM207.381 71.5689C205.651 71.5689 204.309 72.0668 203.354 73.0627C202.399 74.0586 201.869 75.4972 201.764 77.3786H212.76C212.652 75.4972 212.154 74.0586 211.266 73.0627C210.378 72.0668 209.083 71.5689 207.381 71.5689Z" fill="#FFFDFE"/>
<path d="M102.758 51.8069V32.4183H105.911V36.4377C106.203 35.6248 106.637 34.8701 107.193 34.2086C107.663 33.654 108.223 33.1816 108.849 32.811C109.423 32.4745 110.048 32.2351 110.7 32.1026C111.334 31.9721 111.979 31.9063 112.625 31.9062H113.611V35.3328C113.399 35.3097 113.18 35.2865 112.941 35.275C112.702 35.2634 112.441 35.275 112.152 35.275C111.227 35.2516 110.308 35.4262 109.457 35.7871C108.733 36.101 108.092 36.5795 107.586 37.1846C107.086 37.8036 106.711 38.5135 106.481 39.2751C106.22 40.1245 106.09 41.0086 106.096 41.897V51.8261L102.758 51.8069Z" fill="#FFFDFE"/>
<path d="M151.17 51.6397V38.5998C151.197 37.7769 151.079 36.9557 150.82 36.1743C150.619 35.6034 150.273 35.0951 149.815 34.6997C149.368 34.3327 148.84 34.0767 148.275 33.9528C147.608 33.8082 146.928 33.7384 146.246 33.7449C145.357 33.7237 144.473 33.893 143.655 34.2416C142.95 34.5532 142.326 35.0221 141.83 35.6122C141.337 36.2081 140.972 36.8986 140.756 37.6411C140.511 38.4343 140.388 39.2598 140.39 40.0897V51.6397H136.867V31.2347H140.224V35.9471C140.464 35.0829 140.855 34.2681 141.379 33.5409C141.846 32.9047 142.424 32.3582 143.085 31.9277C143.73 31.514 144.437 31.206 145.179 31.0153C145.91 30.8233 146.661 30.7249 147.416 30.7227C149.567 30.7227 151.314 31.2758 152.656 32.382C153.998 33.4882 154.668 35.2567 154.666 37.6873V51.6397H151.17Z" fill="#FFFDFE"/>
<path d="M175.524 43.8851C175.405 45.0145 175.074 46.1114 174.55 47.1191C173.558 49.0239 171.888 50.4872 169.869 51.2193C168.802 51.613 167.672 51.8099 166.535 51.8007C165.279 51.8147 164.032 51.5819 162.866 51.1154C161.755 50.6676 160.769 49.9568 159.994 49.0441C159.15 48.0333 158.517 46.8645 158.13 45.606C157.654 44.0565 157.426 42.4413 157.456 40.8205C157.423 39.2197 157.65 37.6241 158.13 36.0965C158.512 34.8849 159.159 33.7735 160.024 32.8433C160.833 32.0022 161.823 31.3569 162.92 30.9568C164.122 30.5264 165.392 30.3151 166.669 30.3331C167.858 30.3209 169.04 30.5029 170.169 30.8721C171.185 31.206 172.122 31.7416 172.926 32.4467C173.702 33.1424 174.33 33.9885 174.77 34.9338C175.237 35.9524 175.512 37.049 175.578 38.1678H172.013C171.849 36.5945 171.283 35.3997 170.315 34.5835C169.289 33.7466 167.993 33.3115 166.669 33.3592C165.893 33.3477 165.12 33.4781 164.39 33.7442C163.698 34.0084 163.085 34.4442 162.608 35.0108C162.063 35.6823 161.661 36.4578 161.426 37.29C161.113 38.4085 160.966 39.5669 160.991 40.7281C160.971 41.922 161.111 43.1132 161.407 44.2701C161.635 45.1763 162.026 46.0335 162.562 46.7995C163.016 47.4409 163.622 47.9605 164.325 48.3126C165.002 48.6441 165.746 48.8141 166.5 48.8092C167.845 48.8419 169.155 48.3849 170.188 47.5233C171.249 46.5932 171.903 45.2842 172.009 43.8774L175.524 43.8851Z" fill="#FFFDFE"/>
<path d="M56.9375 88.1567V60.918H76.2221V64.0365H60.5488V72.3217H75.1133V75.4402H60.5488V85.0382H76.8343V88.1567H56.9375Z" fill="#FFFDFE"/>
<path d="M116.64 80.9893C116.525 82.0583 116.212 83.0965 115.716 84.0501C115.251 84.9421 114.626 85.7408 113.871 86.4063C113.109 87.0739 112.231 87.5959 111.28 87.9463C109.129 88.7134 106.774 88.6779 104.647 87.8462C103.595 87.4213 102.661 86.7491 101.925 85.8865C101.125 84.9275 100.525 83.819 100.158 82.6256C99.7088 81.1566 99.4944 79.626 99.5225 78.0903C99.4915 76.5745 99.706 75.0638 100.158 73.6166C100.519 72.4709 101.129 71.4192 101.944 70.5366C102.71 69.7401 103.647 69.1291 104.685 68.7502C105.825 68.3438 107.029 68.1444 108.239 68.1611C109.364 68.1502 110.484 68.3232 111.554 68.6732C112.518 68.988 113.407 69.4963 114.168 70.167C114.903 70.8247 115.496 71.6251 115.912 72.5193C116.36 73.4886 116.621 74.5335 116.682 75.5993H113.305C113.149 74.1055 112.612 72.9736 111.696 72.2036C110.72 71.4096 109.488 70.9989 108.231 71.0486C107.494 71.0432 106.761 71.1737 106.071 71.4336C105.415 71.6823 104.833 72.0944 104.381 72.631C103.866 73.2673 103.486 74.0023 103.265 74.7908C102.966 75.85 102.827 76.9478 102.853 78.0479C102.832 79.1791 102.961 80.308 103.238 81.4051C103.455 82.2634 103.827 83.0749 104.335 83.7998C104.766 84.4074 105.34 84.8993 106.006 85.232C106.647 85.5465 107.352 85.7073 108.066 85.7017C109.339 85.733 110.58 85.3006 111.558 84.4851C112.567 83.6025 113.188 82.3576 113.286 81.0201L116.64 80.9893Z" fill="#FFFDFE"/>
<path d="M132.304 87.9807V75.6145C132.328 74.8323 132.221 74.0516 131.988 73.3045C131.812 72.7647 131.493 72.2829 131.064 71.9108C130.638 71.561 130.133 71.3193 129.593 71.2063C128.961 71.0693 128.315 71.0034 127.668 71.0099C126.84 70.9931 126.017 71.1533 125.254 71.4796C124.591 71.7713 124.007 72.2159 123.549 72.7771C123.092 73.3465 122.751 74.0007 122.548 74.7021C122.323 75.4513 122.21 76.2297 122.213 77.0121V87.9653H118.875V58.3203H122.213V73.0851C122.439 72.2702 122.803 71.5004 123.291 70.8097C123.713 70.2125 124.234 69.6917 124.831 69.2697C125.406 68.8771 126.044 68.5854 126.717 68.4073C127.395 68.2228 128.094 68.1296 128.796 68.1301C130.837 68.1301 132.489 68.6576 133.744 69.7009C134.999 70.7443 135.626 72.4229 135.626 74.729V87.9576L132.304 87.9807Z" fill="#FFFDFE"/>
<path d="M152.058 87.9793C151.898 86.8314 151.819 85.6735 151.824 84.5143C151.386 85.7235 150.518 86.7293 149.387 87.3402C147.953 88.1501 146.324 88.5497 144.678 88.4952C142.347 88.4952 140.679 87.9909 139.673 86.9822C138.667 85.9735 138.162 84.5798 138.16 82.8011C138.125 81.8541 138.335 80.9142 138.768 80.0714C139.182 79.3427 139.777 78.7338 140.497 78.3043C141.326 77.8148 142.226 77.4576 143.165 77.2455C144.308 76.979 145.465 76.7759 146.63 76.6372C147.438 76.5333 148.147 76.4601 148.747 76.4216C149.256 76.3957 149.762 76.33 150.26 76.2253C150.592 76.1672 150.906 76.0357 151.181 75.8403C151.29 75.7458 151.376 75.6268 151.43 75.493C151.485 75.3592 151.508 75.2144 151.496 75.0703C151.496 73.6573 151.111 72.6063 150.341 71.9094C149.571 71.2126 148.378 70.8699 146.73 70.8699C145.213 70.8699 144.022 71.1779 143.157 71.7939C142.295 72.4099 141.81 73.461 141.706 74.9548H138.722C138.745 74.0142 138.919 73.0835 139.238 72.1982C139.529 71.3753 140.013 70.6345 140.651 70.0383C141.369 69.3945 142.221 68.9185 143.146 68.6446C144.369 68.2887 145.641 68.1225 146.915 68.1518C148.184 68.1215 149.45 68.2943 150.665 68.6639C151.581 68.9461 152.416 69.4453 153.098 70.1192C153.732 70.7962 154.191 71.6185 154.434 72.5139C154.721 73.5701 154.859 74.6612 154.846 75.7556V87.9639L152.058 87.9793ZM151.558 77.85C151.301 78.1914 150.758 78.407 149.929 78.4968L146.73 78.8818C145.97 78.9738 145.217 79.1113 144.474 79.2937C143.881 79.4337 143.316 79.6733 142.803 80.0021C142.375 80.2848 142.024 80.6699 141.783 81.1225C141.529 81.6473 141.407 82.2262 141.429 82.8088C141.429 84.9032 142.75 85.9504 145.394 85.9504C146.922 85.9966 148.42 85.5138 149.633 84.5837C150.195 84.1356 150.656 83.5728 150.984 82.9329C151.312 82.2929 151.5 81.5905 151.535 80.8722L151.558 77.85Z" fill="#FFFDFE"/>
<path d="M171.408 87.9758V75.6096C171.434 74.8258 171.321 74.0436 171.073 73.2996C170.886 72.7614 170.562 72.2811 170.133 71.9059C169.705 71.5569 169.199 71.3153 168.659 71.2014C168.026 71.0643 167.381 70.9984 166.734 71.005C165.891 70.9858 165.054 71.1459 164.277 71.4747C163.61 71.7692 163.02 72.2131 162.553 72.7722C162.085 73.3384 161.737 73.9931 161.528 74.6972C161.306 75.447 161.195 76.2252 161.197 77.0072V87.9604H157.859V68.6604H161.039V73.0956C161.267 72.2777 161.638 71.5071 162.137 70.8202C162.584 70.2129 163.137 69.6912 163.769 69.2802C164.379 68.888 165.049 68.5968 165.752 68.4178C166.443 68.235 167.155 68.1418 167.869 68.1406C169.914 68.1406 171.565 68.6681 172.836 69.7114C174.106 70.7548 174.742 72.4334 174.742 74.7395V87.9681L171.408 87.9758Z" fill="#FFFDFE"/>
<path d="M192.256 83.7419C192.085 84.4395 191.776 85.0958 191.348 85.6724C190.92 86.2489 190.38 86.734 189.762 87.0991C189.174 87.4433 188.54 87.7026 187.879 87.8691C187.217 88.0376 186.537 88.1229 185.854 88.1232C184.543 88.1543 183.242 87.8911 182.046 87.3532C181.015 86.874 180.108 86.1624 179.397 85.2742C178.681 84.3393 178.158 83.2714 177.857 82.1326C177.511 80.8526 177.34 79.5316 177.349 78.2056C177.327 76.7721 177.526 75.3437 177.938 73.9706C178.283 72.8148 178.857 71.74 179.625 70.8098C180.345 69.9559 181.251 69.2778 182.273 68.827C183.384 68.353 184.581 68.1182 185.788 68.1379C186.458 68.1409 187.124 68.2276 187.771 68.3958C188.441 68.5656 189.078 68.8439 189.658 69.2197C190.273 69.6251 190.811 70.1361 191.248 70.7289C191.758 71.4438 192.142 72.2407 192.384 73.0851V68.6653H195.602V88.1771C195.626 89.4911 195.4 90.7977 194.936 92.0271C194.525 93.0852 193.881 94.0377 193.053 94.8145C192.206 95.579 191.21 96.1597 190.127 96.5201C188.906 96.9257 187.626 97.1248 186.339 97.1091C185.072 97.1287 183.811 96.9361 182.608 96.5393C181.569 96.1945 180.609 95.6476 179.782 94.93C178.995 94.2343 178.378 93.3678 177.977 92.3967C177.543 91.3249 177.329 90.1765 177.349 89.0203H180.429C180.458 90.6732 181.014 91.9565 182.1 92.8703C183.186 93.784 184.605 94.2344 186.358 94.2216C188.155 94.2216 189.588 93.7185 190.659 92.7124C191.729 91.7063 192.259 90.2728 192.249 88.412L192.256 83.7419ZM186.481 85.5091C187.372 85.5251 188.253 85.3298 189.053 84.9393C189.778 84.5738 190.409 84.047 190.897 83.3993C191.408 82.7066 191.78 81.9224 191.995 81.0893C192.254 80.1554 192.384 79.1902 192.38 78.221C192.4 77.1311 192.248 76.0449 191.929 75.0024C191.677 74.1734 191.256 73.4053 190.693 72.7463C190.183 72.167 189.543 71.7159 188.826 71.4296C188.083 71.1373 187.291 70.9909 186.493 70.9984C185.715 70.97 184.941 71.114 184.225 71.4202C183.51 71.7264 182.871 72.1871 182.354 72.7694C181.307 73.9321 180.783 75.757 180.783 78.2441C180.783 80.7312 181.307 82.5702 182.354 83.7612C182.872 84.3395 183.51 84.7969 184.224 85.1009C184.938 85.405 185.71 85.5483 186.485 85.5206L186.481 85.5091Z" fill="#FFFDFE"/>
<path d="M14.5977 11.9062V1.88477H16.5664L20.668 8.57715V1.88477H22.5479V11.9062H20.5176L16.4775 5.37109V11.9062H14.5977ZM24.667 11.9062V1.88477H27.6953L29.5137 8.7207L31.3115 1.88477H34.3467V11.9062H32.4668V4.01758L30.4775 11.9062H28.5293L26.5469 4.01758V11.9062H24.667ZM35.8438 8.64551L37.8125 8.4541C37.931 9.11491 38.1702 9.60026 38.5303 9.91016C38.8949 10.2201 39.3848 10.375 40 10.375C40.6517 10.375 41.1416 10.2383 41.4697 9.96484C41.8024 9.68685 41.9688 9.36328 41.9688 8.99414C41.9688 8.75716 41.8981 8.55664 41.7568 8.39258C41.6201 8.22396 41.3786 8.07812 41.0322 7.95508C40.7952 7.87305 40.2552 7.72721 39.4121 7.51758C38.3275 7.2487 37.5664 6.91829 37.1289 6.52637C36.5137 5.97493 36.2061 5.30273 36.2061 4.50977C36.2061 3.99935 36.3496 3.52311 36.6367 3.08105C36.9284 2.63444 37.3454 2.29492 37.8877 2.0625C38.4346 1.83008 39.0931 1.71387 39.8633 1.71387C41.1211 1.71387 42.0667 1.98958 42.7002 2.54102C43.3382 3.09245 43.6732 3.82845 43.7051 4.74902L41.6816 4.83789C41.5951 4.32292 41.4082 3.95378 41.1211 3.73047C40.8385 3.5026 40.4124 3.38867 39.8428 3.38867C39.2549 3.38867 38.7946 3.50944 38.4619 3.75098C38.2477 3.90592 38.1406 4.11328 38.1406 4.37305C38.1406 4.61003 38.2409 4.81283 38.4414 4.98145C38.6966 5.19564 39.3164 5.41895 40.3008 5.65137C41.2852 5.88379 42.012 6.12533 42.4814 6.37598C42.9554 6.62207 43.3245 6.96159 43.5889 7.39453C43.8577 7.82292 43.9922 8.35384 43.9922 8.9873C43.9922 9.56152 43.8327 10.0993 43.5137 10.6006C43.1947 11.1019 42.7435 11.4756 42.1602 11.7217C41.5768 11.9632 40.8499 12.084 39.9795 12.084C38.7126 12.084 37.7396 11.7923 37.0605 11.209C36.3815 10.6211 35.9759 9.7666 35.8438 8.64551ZM45.6875 1.88477H49.3857C50.2197 1.88477 50.8555 1.94857 51.293 2.07617C51.8809 2.24935 52.3844 2.55697 52.8037 2.99902C53.223 3.44108 53.542 3.9834 53.7607 4.62598C53.9795 5.264 54.0889 6.05241 54.0889 6.99121C54.0889 7.81608 53.9863 8.52702 53.7812 9.12402C53.5306 9.85319 53.1729 10.4434 52.708 10.8945C52.3571 11.2363 51.8831 11.5029 51.2861 11.6943C50.8395 11.8356 50.2425 11.9062 49.4951 11.9062H45.6875V1.88477ZM47.7109 3.58008V10.2178H49.2217C49.7868 10.2178 50.1947 10.1859 50.4453 10.1221C50.7734 10.04 51.0446 9.90104 51.2588 9.70508C51.4775 9.50911 51.6553 9.18783 51.792 8.74121C51.9287 8.29004 51.9971 7.67708 51.9971 6.90234C51.9971 6.1276 51.9287 5.53288 51.792 5.11816C51.6553 4.70345 51.4639 4.37988 51.2178 4.14746C50.9717 3.91504 50.6595 3.75781 50.2812 3.67578C49.9987 3.61198 49.445 3.58008 48.6201 3.58008H47.7109ZM62.2236 8.22168L64.1855 8.84375C63.8848 9.9375 63.3835 10.751 62.6816 11.2842C61.9844 11.8128 61.098 12.0771 60.0225 12.0771C58.6917 12.0771 57.598 11.6237 56.7412 10.7168C55.8844 9.80534 55.4561 8.5612 55.4561 6.98438C55.4561 5.31641 55.8867 4.02214 56.748 3.10156C57.6094 2.17643 58.7419 1.71387 60.1455 1.71387C61.3714 1.71387 62.3672 2.07617 63.1328 2.80078C63.5885 3.22917 63.9303 3.8444 64.1582 4.64648L62.1553 5.125C62.0368 4.60547 61.7884 4.19531 61.4102 3.89453C61.0365 3.59375 60.5807 3.44336 60.043 3.44336C59.3001 3.44336 58.6963 3.70996 58.2314 4.24316C57.7712 4.77637 57.541 5.63997 57.541 6.83398C57.541 8.10091 57.7689 9.00326 58.2246 9.54102C58.6803 10.0788 59.2728 10.3477 60.002 10.3477C60.5397 10.3477 61.0023 10.1768 61.3896 9.83496C61.777 9.49316 62.055 8.9554 62.2236 8.22168ZM78.3428 11.9062H76.1416L75.2666 9.62988H71.2607L70.4336 11.9062H68.2871L72.1904 1.88477H74.3301L78.3428 11.9062ZM74.6172 7.94141L73.2363 4.22266L71.8828 7.94141H74.6172ZM79.4434 11.9062V1.88477H81.4121L85.5137 8.57715V1.88477H87.3936V11.9062H85.3633L81.3232 5.37109V11.9062H79.4434ZM89.5605 11.9062V1.88477H91.5293L95.6309 8.57715V1.88477H97.5107V11.9062H95.4805L91.4404 5.37109V11.9062H89.5605ZM99.6436 1.88477H101.667V7.3125C101.667 8.17383 101.692 8.7321 101.742 8.9873C101.829 9.39746 102.034 9.72786 102.357 9.97852C102.686 10.2246 103.132 10.3477 103.697 10.3477C104.271 10.3477 104.704 10.2314 104.996 9.99902C105.288 9.76204 105.463 9.47266 105.522 9.13086C105.582 8.78906 105.611 8.22168 105.611 7.42871V1.88477H107.635V7.14844C107.635 8.35156 107.58 9.2015 107.471 9.69824C107.361 10.195 107.159 10.6143 106.862 10.9561C106.571 11.2979 106.179 11.5713 105.687 11.7764C105.194 11.9769 104.552 12.0771 103.759 12.0771C102.802 12.0771 102.075 11.9678 101.578 11.749C101.086 11.5257 100.696 11.2386 100.409 10.8877C100.122 10.5322 99.9329 10.1608 99.8418 9.77344C99.7096 9.19922 99.6436 8.35156 99.6436 7.23047V1.88477ZM118.812 11.9062H116.61L115.735 9.62988H111.729L110.902 11.9062H108.756L112.659 1.88477H114.799L118.812 11.9062ZM115.086 7.94141L113.705 4.22266L112.352 7.94141H115.086ZM119.946 11.9062V1.9668H121.97V10.2178H127.001V11.9062H119.946Z" fill="#FFFDFE"/>
<path d="M37.5191 60.0036L37.8079 65.1164L37.3035 65.2935C37.0186 64.9085 36.7145 64.5235 36.4565 64.1115C35.1283 62.0364 33.415 60.5503 30.8009 60.6003C28.3754 60.6465 27.024 62.7486 28.0481 64.9316C28.5091 65.9489 29.1333 66.884 29.8961 67.6997C33.7461 71.6575 37.6847 75.5499 41.5963 79.4576C41.8968 79.7158 42.2131 79.955 42.5434 80.1737C43.5867 78.5413 43.6753 76.8627 43.3942 75.0763C43.0631 72.9858 41.2806 72.5661 39.5442 72.0695L39.806 71.6229H47.6369C44.5839 74.1485 46.12 78.0947 44.1719 80.8629C44.0603 81.0246 44.3221 81.6598 44.5569 81.8331C46.5589 83.2075 48.5224 84.6782 50.663 85.7909C51.7256 86.3414 53.1424 86.2067 54.3783 86.3761C53.6622 87.8275 50.8594 88.636 48.0219 87.6427C45.8159 86.8727 43.8254 85.4752 41.5539 84.2586C39.4056 86.045 36.803 87.5888 33.6691 87.8968C29.2801 88.328 25.3839 87.2231 22.4541 83.7465C18.2653 78.7685 20.1864 72.0002 26.6044 69.2012C26.2579 68.4928 25.8613 67.7998 25.5726 67.0683C24.0903 63.3338 26.1116 59.7533 30.1002 59.3683C31.7133 59.2143 33.3881 59.6494 35.032 59.8303C35.6942 59.9073 36.3487 60.0267 37.0071 60.1268L37.5191 60.0036ZM40.3296 82.861C39.6751 82.3028 39.0668 81.8523 38.5394 81.321C35.2797 78.0562 32.0303 74.7812 28.7912 71.4958C27.2512 69.9558 26.1847 69.875 24.6871 71.4419C22.6042 73.6133 22.5003 76.1928 23.5321 78.8031C26.0962 85.2211 34.7471 87.3848 40.3296 82.861Z" fill="white"/>
<path d="M67.5186 33.8816H64.2461V30.6476H70.7641C67.9883 28.8073 66.7024 26.7321 67.2991 23.8523C67.8959 20.9725 69.9017 19.0475 73.1396 18.6933C74.7258 18.5239 76.3659 18.778 77.9752 18.8897C79.5845 19.0013 80.0965 19.8637 79.5152 21.3806C79.3892 21.7977 79.2953 22.2237 79.2341 22.655C77.902 22.5318 76.6354 22.27 75.3841 22.3316C73.1742 22.4394 71.8883 23.7368 71.692 25.9313C71.5591 27.0993 71.5591 28.2785 71.692 29.4464C71.7836 29.7111 71.9396 29.949 72.1459 30.1385C72.3522 30.328 72.6024 30.4632 72.8739 30.5321C74.2683 30.684 75.6745 30.6917 77.0704 30.5552C78.7028 30.3781 79.1802 31.0595 78.9646 32.5302C78.9146 32.8613 78.9107 33.1963 78.8722 33.7314H72.0231V51.8611H67.5186V33.8816Z" fill="white"/>
</g>
<defs>
<clipPath id="clip0_16449_86737">
<rect width="215.947" height="96.6927" fill="white" transform="translate(0.25 0.441406)"/>
</clipPath>
</defs>
</svg>
