<svg width="321" height="204" viewBox="0 0 321 204" fill="none" xmlns="http://www.w3.org/2000/svg">
<path d="M81.9073 145.026C69.4923 143.132 56.7782 136.999 45.6595 127.276C48.4018 122.689 51.4432 118.451 54.7838 114.662C60.6173 128.174 69.9411 138.944 81.9073 145.026ZM47.8035 80.1094C47.7536 71.9325 48.6012 61.462 52.241 50.3434C38.6792 48.9972 25.5662 50.6425 14.0985 55.08C13.3506 67.2457 15.6441 80.4086 21.1785 93.2723C28.2087 87.9872 40.524 82.403 47.8035 80.1094ZM48.1525 87.8377C42.0696 89.9317 30.6518 94.8678 24.4194 99.9535C27.7101 106.635 35.3885 116.956 40.175 121.991C43.6651 116.407 47.604 111.421 51.9418 106.934C49.9973 100.951 48.7508 94.5188 48.1525 87.8377Z" fill="#FF8137"/>
<path d="M68.2479 122.988C60.769 112.866 56.1321 99.5538 55.1847 84.7954C60.3701 83.4991 65.5056 82.6515 70.5414 82.3024C65.1068 96.0138 64.1096 110.224 68.2479 122.988ZM90.0863 52.9352C95.8202 47.1516 103.848 40.3208 114.268 35.0357C105.642 24.5154 95.2219 16.3883 83.9536 11.4023C74.8293 19.4796 67.151 30.3988 61.9656 43.4121C70.6412 44.6087 83.2556 49.4451 90.0863 52.9352ZM84.8511 58.6691C79.0674 55.8271 67.5 51.2899 59.4726 50.4423C57.0794 57.4725 55.1847 70.2365 55.0352 77.1669C61.4172 75.6711 67.7493 74.9731 73.9817 74.8235C76.8736 69.2393 80.5133 63.8046 84.8511 58.6691Z" fill="#0075BF"/>
<path d="M74.1797 97.712C76.0743 85.297 82.2071 72.5829 91.9296 61.4642C96.5167 64.2065 100.755 67.2479 104.544 70.5885C91.0322 76.422 80.3124 85.7956 74.1797 97.712ZM139.147 63.6082C147.323 63.5583 157.794 64.4059 168.913 68.0456C170.259 54.4839 168.613 41.3709 164.176 29.9032C152.06 29.1553 138.847 31.4488 126.033 36.9832C131.269 44.0134 136.803 56.3287 139.147 63.6082ZM131.368 63.9572C129.274 57.8743 124.338 46.4565 119.253 40.1742C112.571 43.465 102.251 51.1433 97.2147 55.9298C102.799 59.3701 107.785 63.3589 112.222 67.6966C118.255 65.802 124.687 64.5555 131.368 63.9572Z" fill="#B7D636"/>
<path d="M105.99 138.195L93.4754 119.149V138.195H89.3869V111.171H93.1264L105.641 130.168V111.171H109.73V138.195H105.99ZM140.642 138.195V111.171H136.554L128.826 127.974L120.948 111.171H116.859V138.195H120.948V120.096L127.33 133.259H130.371L136.604 120.096V138.195H140.642ZM154.852 138.444C160.486 138.444 164.575 135.503 164.575 130.517C164.575 128.223 163.827 126.279 162.381 124.982C161.234 123.935 159.838 123.337 157.345 122.988L154.254 122.539C153.008 122.34 151.911 121.891 151.213 121.293C150.515 120.644 150.166 119.797 150.166 118.8C150.166 116.406 151.911 114.562 155.102 114.562C157.395 114.562 159.34 115.06 160.985 116.656L163.628 114.063C161.334 111.919 158.791 110.972 155.251 110.972C149.617 110.972 146.227 114.213 146.227 118.899C146.227 121.093 146.875 122.788 148.221 124.085C149.418 125.182 151.163 125.93 153.357 126.229L156.548 126.677C158.143 126.927 158.841 127.176 159.489 127.824C160.187 128.472 160.536 129.47 160.536 130.616C160.536 133.259 158.492 134.755 154.952 134.755C152.16 134.755 150.016 134.156 148.022 132.162L145.279 134.854C147.872 137.497 150.764 138.444 154.852 138.444ZM186.563 135.652C189.505 132.71 189.305 128.423 189.305 124.484C189.305 120.595 189.505 116.606 186.563 113.714C184.868 112.019 182.375 111.171 179.583 111.171H170.109V138.195H179.583C182.375 138.195 184.818 137.397 186.563 135.652ZM183.721 116.706C185.117 118.251 185.167 120.794 185.167 124.533C185.167 128.273 185.117 131.165 183.721 132.76C182.574 134.007 181.078 134.605 179.134 134.605H174.148V114.911H179.134C181.078 114.861 182.574 115.409 183.721 116.706ZM204.064 138.444C208.95 138.444 212.789 135.503 213.686 130.118H209.598C208.95 132.86 207.105 134.755 204.113 134.755C202.518 134.755 201.072 134.156 200.125 133.109C198.779 131.663 198.479 130.118 198.479 124.683C198.479 119.248 198.779 117.703 200.125 116.257C201.072 115.21 202.518 114.611 204.113 114.611C207.105 114.611 208.95 116.506 209.598 119.248H213.786C212.839 113.864 209.099 110.922 204.163 110.922C201.371 110.922 198.928 111.969 197.083 113.814C194.441 116.456 194.441 119.448 194.441 124.683C194.441 129.868 194.391 132.91 197.083 135.552C198.828 137.397 201.271 138.444 204.064 138.444ZM99.3588 162.676V149.214H97.3146V158.687L91.0822 149.214H89.1875V162.676H91.2317V153.203L97.4642 162.676H99.3588ZM109.779 162.676V156.244C109.779 154.05 108.433 152.953 105.841 152.953C104.245 152.953 103.298 153.253 102.4 154.349L103.647 155.546C104.195 154.848 104.694 154.599 105.741 154.599C107.237 154.599 107.835 155.197 107.835 156.394V157.092H105.292C103.098 157.092 102.001 158.238 102.001 159.834C102.001 160.632 102.251 161.38 102.749 161.878C103.348 162.477 104.145 162.776 105.342 162.776C106.539 162.776 107.187 162.477 107.885 161.778V162.626H109.779V162.676ZM107.835 159.236C107.835 159.934 107.685 160.382 107.436 160.632C106.937 161.13 106.389 161.18 105.641 161.18C104.444 161.18 103.896 160.682 103.896 159.834C103.896 158.986 104.494 158.438 105.641 158.438H107.885V159.236H107.835ZM116.859 162.676V161.031H116.062C115.364 161.031 115.015 160.632 115.015 159.934V154.748H116.859V153.253H115.015V150.311H113.07V153.203H111.973V154.698H113.07V159.984C113.07 161.38 113.918 162.676 115.713 162.676H116.859ZM119.352 151.208H121.397V149.164H119.352V151.208ZM119.452 162.676H121.397V153.053H119.452V162.676ZM130.92 161.679C131.817 160.731 132.067 159.535 132.067 157.889C132.067 156.294 131.817 155.047 130.92 154.1C130.272 153.452 129.374 152.953 128.028 152.953C126.732 152.953 125.784 153.452 125.186 154.1C124.289 155.047 124.039 156.244 124.039 157.889C124.039 159.535 124.289 160.731 125.186 161.679C125.834 162.327 126.732 162.826 128.028 162.826C129.374 162.776 130.322 162.277 130.92 161.679ZM129.474 155.247C130.072 155.845 130.122 156.842 130.122 157.889C130.122 158.937 130.022 159.934 129.474 160.532C129.125 160.881 128.626 161.08 128.078 161.08C127.529 161.08 127.031 160.881 126.682 160.532C126.083 159.934 126.034 158.937 126.034 157.889C126.034 156.842 126.133 155.845 126.682 155.247C127.031 154.898 127.529 154.698 128.078 154.698C128.626 154.698 129.125 154.898 129.474 155.247ZM142.587 162.676V156.543C142.587 155.446 142.338 154.549 141.64 153.851C141.091 153.302 140.244 153.003 139.296 153.003C138.349 153.003 137.402 153.352 136.753 154.1V153.153H134.859V162.776H136.803V156.942C136.803 155.446 137.701 154.798 138.798 154.798C139.895 154.798 140.742 155.446 140.742 156.942V162.776H142.587V162.676ZM152.708 162.676V156.244C152.708 154.05 151.362 152.953 148.77 152.953C147.174 152.953 146.227 153.253 145.329 154.349L146.576 155.546C147.124 154.848 147.623 154.599 148.67 154.599C150.166 154.599 150.764 155.197 150.764 156.394V157.092H148.221C146.027 157.092 144.93 158.238 144.93 159.834C144.93 160.632 145.18 161.38 145.678 161.878C146.277 162.477 147.074 162.776 148.271 162.776C149.468 162.776 150.116 162.477 150.814 161.778V162.626H152.708V162.676ZM150.764 159.236C150.764 159.934 150.614 160.382 150.365 160.632C149.866 161.13 149.318 161.18 148.57 161.18C147.373 161.18 146.825 160.682 146.825 159.834C146.825 158.986 147.423 158.438 148.57 158.438H150.814V159.236H150.764ZM159.539 162.676V161.031H158.692C157.894 161.031 157.644 160.632 157.644 159.934V149.214H155.7V160.033C155.7 161.429 156.498 162.676 158.343 162.676H159.539ZM178.486 162.676V149.214H176.441L172.602 157.59L168.663 149.214H166.619V162.676H168.663V153.651L171.854 160.233H173.35L176.441 153.651V162.676H178.486ZM181.826 151.208H183.871V149.164H181.826V151.208ZM181.876 162.676H183.821V153.053H181.876V162.676ZM194.74 162.676V156.543C194.74 155.446 194.491 154.549 193.793 153.851C193.244 153.302 192.396 153.003 191.449 153.003C190.502 153.003 189.555 153.352 188.906 154.1V153.153H187.012V162.776H188.956V156.942C188.956 155.446 189.854 154.798 190.951 154.798C192.047 154.798 192.895 155.446 192.895 156.942V162.776H194.74V162.676ZM204.263 161.679C205.16 160.731 205.41 159.535 205.41 157.889C205.41 156.294 205.16 155.047 204.263 154.1C203.615 153.452 202.717 152.953 201.371 152.953C200.075 152.953 199.128 153.452 198.529 154.1C197.632 155.047 197.382 156.244 197.382 157.889C197.382 159.535 197.632 160.731 198.529 161.679C199.177 162.327 200.075 162.826 201.371 162.826C202.668 162.776 203.615 162.277 204.263 161.679ZM202.767 155.247C203.366 155.845 203.415 156.842 203.415 157.889C203.415 158.937 203.316 159.934 202.767 160.532C202.418 160.881 201.92 161.08 201.371 161.08C200.823 161.08 200.324 160.881 199.975 160.532C199.377 159.934 199.327 158.937 199.327 157.889C199.327 156.842 199.427 155.845 199.975 155.247C200.324 154.898 200.823 154.698 201.371 154.698C201.92 154.698 202.418 154.898 202.767 155.247ZM214.833 153.851C214.185 153.203 213.487 152.953 212.54 152.953C211.443 152.953 210.495 153.402 209.997 154.1V153.053H208.102V162.676H210.047V156.842C210.047 155.496 210.894 154.698 211.941 154.698C212.59 154.698 212.939 154.898 213.387 155.347L214.833 153.851ZM216.429 151.208H218.473V149.164H216.429V151.208ZM216.479 162.676H218.423V153.053H216.479V162.676ZM225.603 162.676V161.031H224.805C224.107 161.031 223.758 160.632 223.758 159.934V154.748H225.603V153.253H223.758V150.311H221.814V153.203H220.717V154.698H221.814V159.984C221.814 161.38 222.661 162.676 224.456 162.676H225.603ZM235.425 153.103H233.381L231.137 159.884L228.844 153.103H226.799L230.14 162.227L229.592 163.723C229.292 164.521 229.043 164.72 228.196 164.72H227.697V166.465H228.495C229.243 166.465 229.941 166.316 230.489 165.767C230.788 165.468 230.988 165.119 231.187 164.571L235.425 153.103ZM245.547 162.776C248.389 162.776 250.383 161.28 250.383 158.837C250.383 157.69 250.034 156.693 249.286 156.095C248.738 155.596 248.04 155.297 246.793 155.097L245.247 154.848C244.599 154.748 244.051 154.549 243.752 154.2C243.403 153.901 243.253 153.452 243.253 152.953C243.253 151.757 244.101 150.859 245.696 150.859C246.843 150.859 247.79 151.109 248.638 151.906L249.934 150.61C248.788 149.513 247.541 149.064 245.746 149.064C242.954 149.064 241.259 150.66 241.259 153.003C241.259 154.1 241.558 154.948 242.256 155.596C242.854 156.144 243.702 156.543 244.799 156.693L246.394 156.942C247.192 157.042 247.541 157.191 247.89 157.491C248.239 157.79 248.438 158.288 248.438 158.887C248.438 160.183 247.391 160.931 245.646 160.931C244.25 160.931 243.203 160.632 242.206 159.635L240.86 160.981C242.056 162.327 243.552 162.776 245.547 162.776ZM260.704 162.676V153.053H258.759V158.887C258.759 160.382 257.862 161.031 256.765 161.031C255.668 161.031 254.82 160.382 254.82 158.887V153.053H252.876V159.186C252.876 160.283 253.125 161.18 253.823 161.878C254.372 162.427 255.219 162.776 256.167 162.776C257.114 162.776 258.061 162.427 258.71 161.679V162.626H260.704V162.676ZM270.626 161.928C271.573 160.981 271.723 159.335 271.723 157.84C271.723 156.394 271.623 154.748 270.626 153.801C270.077 153.253 269.23 152.953 268.283 152.953C267.236 152.953 266.488 153.203 265.74 154.1V153.053H263.845V166.515H265.79V161.629C266.488 162.477 267.285 162.726 268.332 162.726C269.28 162.776 270.127 162.477 270.626 161.928ZM267.784 154.698C269.529 154.698 269.778 156.194 269.778 157.889C269.778 159.585 269.529 161.08 267.784 161.08C266.039 161.08 265.79 159.585 265.79 157.889C265.79 156.144 266.089 154.698 267.784 154.698ZM281.196 161.928C282.143 160.981 282.293 159.335 282.293 157.84C282.293 156.394 282.193 154.748 281.196 153.801C280.648 153.253 279.8 152.953 278.853 152.953C277.806 152.953 277.058 153.203 276.31 154.1V153.053H274.415V166.515H276.36V161.629C277.058 162.477 277.856 162.726 278.853 162.726C279.85 162.776 280.698 162.477 281.196 161.928ZM278.354 154.698C280.099 154.698 280.349 156.194 280.349 157.889C280.349 159.585 280.099 161.08 278.354 161.08C276.609 161.08 276.36 159.585 276.36 157.889C276.36 156.144 276.609 154.698 278.354 154.698ZM288.775 162.676V161.031H287.927C287.129 161.031 286.88 160.632 286.88 159.934V149.214H284.936V160.033C284.936 161.429 285.733 162.676 287.578 162.676H288.775ZM290.919 151.208H292.963V149.164H290.919V151.208ZM290.969 162.676H292.913V153.053H290.969V162.676ZM303.733 158.438V157.59C303.733 154.848 302.237 152.953 299.644 152.953C297.201 152.953 295.556 154.748 295.556 157.84C295.556 161.479 297.45 162.776 299.893 162.776C301.589 162.776 302.486 162.277 303.483 161.28L302.237 160.133C301.539 160.831 300.99 161.13 299.893 161.13C298.348 161.13 297.45 160.083 297.45 158.438H303.733ZM301.539 155.795C301.738 156.244 301.788 156.493 301.788 157.092H297.45C297.45 156.493 297.5 156.244 297.7 155.795C297.999 155.097 298.697 154.599 299.594 154.599C300.542 154.549 301.24 155.047 301.539 155.795ZM313.106 153.851C312.458 153.203 311.76 152.953 310.813 152.953C309.716 152.953 308.768 153.402 308.27 154.1V153.053H306.375V162.676H308.32V156.842C308.32 155.496 309.167 154.698 310.214 154.698C310.862 154.698 311.212 154.898 311.66 155.347L313.106 153.851ZM97.4143 184.116C98.8602 182.67 98.7605 180.526 98.7605 178.531C98.7605 176.587 98.8602 174.592 97.4143 173.146C96.5667 172.299 95.3202 171.9 93.9241 171.9H89.1875V185.362H93.9241C95.3202 185.412 96.5667 184.963 97.4143 184.116ZM96.0182 174.642C96.7163 175.44 96.7163 176.686 96.7163 178.531C96.7163 180.376 96.7163 181.822 96.0182 182.62C95.4698 183.268 94.672 183.517 93.7247 183.517H91.2317V173.745H93.7247C94.672 173.745 95.4199 174.044 96.0182 174.642ZM109.331 181.174V180.326C109.331 177.584 107.835 175.689 105.242 175.689C102.799 175.689 101.154 177.484 101.154 180.576C101.154 184.215 103.048 185.512 105.492 185.512C107.187 185.512 108.084 185.013 109.081 184.016L107.835 182.869C107.137 183.567 106.588 183.866 105.492 183.866C103.896 183.866 103.048 182.819 103.048 181.174H109.331ZM107.137 178.531C107.336 178.98 107.386 179.229 107.386 179.828H103.048C103.048 179.229 103.098 178.98 103.298 178.531C103.597 177.833 104.295 177.335 105.192 177.335C106.14 177.285 106.838 177.783 107.137 178.531ZM119.003 175.789H116.959L114.716 182.57L112.422 175.789H110.378L113.918 185.412H115.513L119.003 175.789ZM128.227 181.174V180.326C128.227 177.584 126.732 175.689 124.139 175.689C121.696 175.689 120.05 177.484 120.05 180.576C120.05 184.215 121.945 185.512 124.388 185.512C126.083 185.512 126.981 185.013 127.978 184.016L126.732 182.869C126.034 183.567 125.485 183.866 124.388 183.866C122.793 183.866 121.945 182.819 121.945 181.174H128.227ZM126.083 178.531C126.283 178.98 126.333 179.229 126.333 179.828H121.995C121.995 179.229 122.045 178.98 122.244 178.531C122.543 177.833 123.241 177.335 124.139 177.335C125.086 177.285 125.784 177.783 126.083 178.531ZM134.659 185.412V183.767H133.812C133.014 183.767 132.765 183.368 132.765 182.67V171.95H130.82V182.769C130.82 184.165 131.618 185.412 133.463 185.412H134.659ZM142.936 184.365C143.833 183.417 144.083 182.221 144.083 180.576C144.083 178.98 143.833 177.734 142.936 176.786C142.288 176.138 141.34 175.639 140.044 175.639C138.748 175.639 137.8 176.138 137.202 176.786C136.305 177.734 136.055 178.93 136.055 180.576C136.055 182.221 136.305 183.417 137.202 184.365C137.85 185.013 138.748 185.512 140.044 185.512C141.34 185.512 142.288 185.013 142.936 184.365ZM141.49 177.983C142.088 178.581 142.138 179.578 142.138 180.625C142.138 181.672 142.038 182.67 141.49 183.268C141.141 183.617 140.642 183.816 140.094 183.816C139.546 183.816 139.047 183.617 138.698 183.268C138.1 182.67 138.05 181.672 138.05 180.625C138.05 179.578 138.149 178.581 138.698 177.983C139.047 177.634 139.546 177.434 140.094 177.434C140.593 177.434 141.091 177.584 141.49 177.983ZM153.556 184.664C154.503 183.717 154.653 182.071 154.653 180.576C154.653 179.13 154.553 177.484 153.556 176.537C153.008 175.988 152.16 175.689 151.213 175.689C150.166 175.689 149.418 175.939 148.67 176.836V175.839H146.775V189.301H148.72V184.415C149.418 185.262 150.215 185.512 151.213 185.512C152.21 185.512 153.008 185.212 153.556 184.664ZM150.714 177.434C152.459 177.434 152.708 178.93 152.708 180.625C152.708 182.321 152.459 183.816 150.714 183.816C148.969 183.816 148.72 182.321 148.72 180.625C148.72 178.88 148.969 177.434 150.714 177.434ZM170.957 185.412V179.279C170.957 178.182 170.658 177.285 169.91 176.587C169.361 176.038 168.464 175.739 167.467 175.739C166.22 175.739 165.223 176.188 164.475 177.135C163.877 176.188 162.93 175.739 161.733 175.739C160.786 175.739 159.838 176.138 159.19 176.836V175.889H157.295V185.512H159.24V179.678C159.24 178.182 160.137 177.534 161.234 177.534C162.331 177.534 163.179 178.182 163.179 179.678V185.512H165.123V179.578C165.123 178.182 166.071 177.534 167.118 177.534C168.215 177.534 169.062 178.182 169.062 179.678V185.512H170.957V185.412ZM181.677 181.174V180.326C181.677 177.584 180.181 175.689 177.588 175.689C175.145 175.689 173.5 177.484 173.5 180.576C173.5 184.215 175.394 185.512 177.838 185.512C179.533 185.512 180.43 185.013 181.427 184.016L180.181 182.869C179.483 183.567 178.934 183.866 177.838 183.866C176.242 183.866 175.394 182.819 175.394 181.174H181.677ZM179.533 178.531C179.732 178.98 179.782 179.229 179.782 179.828H175.444C175.444 179.229 175.494 178.98 175.694 178.531C175.993 177.833 176.691 177.335 177.588 177.335C178.536 177.285 179.184 177.783 179.533 178.531ZM192.097 185.412V179.279C192.097 178.182 191.848 177.285 191.15 176.587C190.602 176.038 189.754 175.739 188.807 175.739C187.859 175.739 186.912 176.088 186.264 176.836V175.889H184.369V185.512H186.314V179.678C186.314 178.182 187.211 177.534 188.308 177.534C189.405 177.534 190.253 178.182 190.253 179.678V185.512H192.097V185.412ZM199.227 185.412V183.767H198.429C197.731 183.767 197.382 183.368 197.382 182.67V177.484H199.227V175.988H197.382V173.097H195.438V175.988H194.341V177.484H195.438V182.719C195.438 184.116 196.286 185.412 198.08 185.412H199.227ZM210.994 185.512C213.437 185.512 215.332 184.066 215.781 181.373H213.736C213.437 182.719 212.49 183.667 210.994 183.667C210.196 183.667 209.498 183.368 209 182.869C208.352 182.171 208.202 181.373 208.202 178.681C208.202 175.988 208.352 175.191 209 174.493C209.448 173.994 210.196 173.695 210.994 173.695C212.49 173.695 213.387 174.642 213.736 175.988H215.83C215.332 173.296 213.487 171.85 211.044 171.85C209.648 171.85 208.451 172.349 207.504 173.296C206.158 174.642 206.208 176.138 206.208 178.731C206.208 181.323 206.208 182.819 207.504 184.165C208.352 185.013 209.598 185.512 210.994 185.512ZM224.805 184.365C225.703 183.417 225.952 182.221 225.952 180.576C225.952 178.98 225.703 177.734 224.805 176.786C224.157 176.138 223.259 175.639 221.913 175.639C220.617 175.639 219.67 176.138 219.071 176.786C218.174 177.734 217.925 178.93 217.925 180.576C217.925 182.221 218.174 183.417 219.071 184.365C219.719 185.013 220.617 185.512 221.913 185.512C223.21 185.512 224.157 185.013 224.805 184.365ZM223.359 177.983C223.958 178.581 224.007 179.578 224.007 180.625C224.007 181.672 223.908 182.67 223.359 183.268C223.01 183.617 222.512 183.816 221.963 183.816C221.415 183.816 220.916 183.617 220.567 183.268C219.969 182.67 219.919 181.672 219.919 180.625C219.919 179.578 220.019 178.581 220.567 177.983C220.916 177.634 221.415 177.434 221.963 177.434C222.512 177.434 223.01 177.584 223.359 177.983ZM236.323 185.412V175.789H234.378V181.623C234.378 183.118 233.481 183.767 232.384 183.767C231.287 183.767 230.439 183.118 230.439 181.623V175.789H228.545V181.922C228.545 183.019 228.794 183.916 229.492 184.614C230.04 185.163 230.888 185.462 231.835 185.462C232.783 185.462 233.73 185.113 234.378 184.365V185.312H236.323V185.412ZM247.292 185.412V179.279C247.292 178.182 247.042 177.285 246.344 176.587C245.796 176.038 244.948 175.739 244.001 175.739C243.054 175.739 242.106 176.088 241.458 176.836V175.889H239.514V185.512H241.458V179.678C241.458 178.182 242.356 177.534 243.453 177.534C244.549 177.534 245.397 178.182 245.397 179.678V185.512H247.292V185.412ZM254.122 185.512C255.469 185.512 256.366 185.113 257.264 184.165L255.917 182.919C255.319 183.567 254.82 183.816 254.073 183.816C253.325 183.816 252.726 183.517 252.278 182.969C251.879 182.42 251.729 181.722 251.729 180.625C251.729 179.528 251.879 178.83 252.278 178.282C252.677 177.734 253.325 177.434 254.073 177.434C254.82 177.434 255.319 177.684 255.917 178.332L257.264 177.035C256.366 176.088 255.419 175.689 254.122 175.689C251.979 175.689 249.835 176.986 249.835 180.576C249.835 184.215 251.979 185.512 254.122 185.512ZM259.557 173.894H261.601V171.85H259.557V173.894ZM259.607 185.412H261.552V175.789H259.607V185.412ZM268.482 185.412V183.767H267.634C266.837 183.767 266.587 183.368 266.587 182.67V171.95H264.643V182.769C264.643 184.165 265.441 185.412 267.285 185.412H268.482Z" fill="white"/>
</svg>
